<svg width="60" height="60" viewBox="0 0 60 60" fill="none" xmlns="http://www.w3.org/2000/svg">
<rect width="60" height="60" rx="30" fill="white"/>
<g clip-path="url(#clip0)">
<path d="M30.0185 8C28.6018 8 27.4531 9.24309 27.4531 10.7766C27.4531 12.3101 28.6016 13.5534 30.0185 13.5534C31.0101 13.5534 31.8685 12.9437 32.2955 12.0525C35.9968 14.339 38.7071 21.9251 38.7071 30.7455C38.7071 34.4823 38.2253 38.0622 37.3321 41.1514C37.3111 41.2241 37.3035 41.3006 37.3097 41.3765C37.316 41.4524 37.336 41.5262 37.3686 41.5937C37.4012 41.6612 37.4458 41.7211 37.4998 41.7699C37.5538 41.8188 37.6161 41.8557 37.6833 41.8784C37.8191 41.9244 37.9662 41.91 38.0922 41.8386C38.2183 41.7672 38.3129 41.6446 38.3555 41.4976C39.2818 38.2933 39.7791 34.5974 39.7791 30.7455C39.7791 21.3782 36.8263 13.2725 32.5781 10.8973C32.5798 10.8571 32.584 10.8174 32.584 10.7766C32.584 9.24327 31.4355 8 30.0185 8V8ZM30.0185 9.16029C30.4145 9.16029 30.7944 9.33058 31.0744 9.6337C31.3545 9.93682 31.5118 10.3479 31.5118 10.7766C31.5118 11.2053 31.3545 11.6164 31.0744 11.9195C30.7944 12.2227 30.4145 12.3929 30.0185 12.3929C29.6224 12.3929 29.2426 12.2227 28.9625 11.9195C28.6825 11.6164 28.5251 11.2053 28.5251 10.7766C28.5251 10.3479 28.6825 9.93682 28.9625 9.6337C29.2426 9.33058 29.6224 9.16029 30.0185 9.16029V9.16029ZM20.8751 16.9266C17.4301 16.9399 14.7963 18.1255 13.561 20.4416C12.3318 22.7459 12.6831 25.801 14.4131 29.0667C14.4855 29.1966 14.602 29.2907 14.7377 29.3288C14.8734 29.3669 15.0174 29.3459 15.139 29.2704C15.2606 29.195 15.35 29.071 15.3882 28.925C15.4264 28.779 15.4102 28.6227 15.3431 28.4895C13.785 25.5476 13.4816 22.9113 14.4896 21.0217C15.858 18.4565 19.5446 17.4946 24.3765 18.4473C24.4457 18.461 24.5168 18.4597 24.5856 18.4437C24.6544 18.4276 24.7197 18.397 24.7776 18.3536C24.8355 18.3103 24.8849 18.255 24.9231 18.191C24.9612 18.127 24.9874 18.0554 25 17.9804C25.0126 17.9055 25.0114 17.8286 24.9966 17.7541C24.9817 17.6796 24.9535 17.609 24.9134 17.5463C24.8734 17.4837 24.8223 17.4302 24.7632 17.3888C24.704 17.3475 24.6379 17.3193 24.5686 17.3056C23.262 17.048 22.0235 16.9223 20.8753 16.9268L20.8751 16.9266ZM39.2955 16.9583C39.1533 16.9563 39.0162 17.0155 38.9144 17.1229C38.8126 17.2303 38.7543 17.377 38.7525 17.5309C38.7506 17.6848 38.8053 17.8331 38.9045 17.9434C39.0037 18.0536 39.1393 18.1166 39.2815 18.1186C42.3376 18.1617 44.5408 19.1931 45.5318 21.0511C46.8971 23.6109 45.8315 27.5357 42.6681 31.5807C42.5763 31.6982 42.5314 31.8504 42.5432 32.0038C42.555 32.1572 42.6225 32.2992 42.731 32.3988C42.7847 32.448 42.8468 32.4853 42.9139 32.5085C42.9809 32.5317 43.0515 32.5404 43.1217 32.5341C43.1918 32.5278 43.2601 32.5066 43.3227 32.4717C43.3852 32.4368 43.4408 32.3889 43.4863 32.3308C46.9088 27.9544 48.1043 23.5526 46.4605 20.471C45.251 18.2034 42.6938 17.0061 39.2955 16.9583V16.9583ZM34.7981 17.4858C34.7619 17.4862 34.7258 17.4905 34.6903 17.4988C31.5956 18.2166 28.3015 19.6193 25.138 21.5963C17.5215 26.3558 12.484 33.3125 12.8711 38.5022C12.0835 38.9763 11.5498 39.8847 11.5498 40.9294C11.5498 42.4627 12.6985 43.706 14.1153 43.706C15.532 43.706 16.6806 42.4629 16.6806 40.9294C16.6806 39.3959 15.5321 38.1526 14.1153 38.1526C14.052 38.1526 13.9896 38.158 13.9273 38.1629C13.7603 33.5453 18.4996 27.0845 25.674 22.6012C28.7428 20.6836 31.9325 19.3247 34.9148 18.6331C35.0442 18.6025 35.1586 18.5212 35.2359 18.4048C35.3132 18.2884 35.3479 18.1451 35.3334 18.0026C35.3189 17.8601 35.2562 17.7285 35.1574 17.6331C35.0586 17.5376 34.9306 17.4852 34.7981 17.4858V17.4858ZM30.0003 28.7359C29.8746 28.7375 29.7493 28.7529 29.6265 28.7819C28.6245 29.0166 27.9881 30.0852 28.2043 31.1699C28.4213 32.2544 29.4086 32.9435 30.4106 32.7092C31.4126 32.4743 32.0493 31.4057 31.8328 30.3212C31.643 29.3723 30.8635 28.7258 30.0003 28.7359V28.7359ZM17.5533 32.0663C17.4829 32.0626 17.4126 32.074 17.3463 32.0999C17.28 32.1257 17.219 32.1655 17.167 32.2169C17.1149 32.2682 17.0727 32.33 17.0427 32.3989C17.0127 32.4679 16.9956 32.5425 16.9923 32.6186C16.989 32.6947 16.9995 32.7707 17.0234 32.8424C17.0472 32.9141 17.0839 32.9799 17.1313 33.0363C19.245 35.5502 21.9908 37.9087 25.1223 39.8654C32.48 44.4635 40.2983 45.7912 44.3903 43.1832C44.8252 43.5234 45.3481 43.7064 45.8846 43.7062C47.3015 43.7062 48.45 42.4631 48.45 40.9296C48.45 39.396 47.3016 38.1528 45.8846 38.1528C44.468 38.1528 43.3193 39.396 43.3193 40.9296C43.3193 41.4274 43.4421 41.8936 43.6543 42.2977C39.913 44.4876 32.6026 43.2 25.6583 38.8605C22.6203 36.962 19.9616 34.6788 17.9243 32.2555C17.877 32.1991 17.8199 32.1533 17.7562 32.1208C17.6926 32.0884 17.6236 32.0698 17.5533 32.0663V32.0663ZM14.1153 39.3131C14.3114 39.3131 14.5056 39.3549 14.6868 39.4361C14.868 39.5173 15.0326 39.6364 15.1713 39.7865C15.3099 39.9366 15.4199 40.1147 15.495 40.3108C15.57 40.5069 15.6086 40.7171 15.6086 40.9294C15.6086 41.1416 15.57 41.3518 15.495 41.5479C15.4199 41.744 15.3099 41.9222 15.1713 42.0723C15.0326 42.2224 14.868 42.3414 14.6868 42.4227C14.5056 42.5039 14.3114 42.5457 14.1153 42.5457C13.9192 42.5457 13.725 42.5039 13.5438 42.4227C13.3627 42.3414 13.198 42.2224 13.0594 42.0723C12.9207 41.9222 12.8107 41.744 12.7356 41.5479C12.6606 41.3518 12.622 41.1416 12.622 40.9294C12.622 40.7171 12.6606 40.5069 12.7356 40.3108C12.8107 40.1147 12.9207 39.9366 13.0594 39.7865C13.198 39.6364 13.3627 39.5173 13.5438 39.4361C13.725 39.3549 13.9192 39.3131 14.1153 39.3131V39.3131ZM45.8846 39.3131C46.0807 39.3131 46.2749 39.3549 46.4561 39.4361C46.6373 39.5173 46.8019 39.6364 46.9406 39.7865C47.0793 39.9366 47.1893 40.1147 47.2643 40.3108C47.3393 40.5069 47.378 40.7171 47.378 40.9294C47.378 41.1416 47.3393 41.3518 47.2643 41.5479C47.1893 41.744 47.0793 41.9222 46.9406 42.0723C46.8019 42.2224 46.6373 42.3414 46.4561 42.4227C46.2749 42.5039 46.0807 42.5457 45.8846 42.5457C45.5254 42.5461 45.1781 42.4055 44.9073 42.1499C44.9031 42.1427 44.9008 42.135 44.8963 42.1277C44.8544 42.0613 44.8 42.0052 44.7368 41.9629C44.5554 41.7268 44.4399 41.4397 44.4038 41.1351C44.3677 40.8306 44.4125 40.5212 44.5329 40.2432C44.6533 39.9652 44.8444 39.7301 45.0838 39.5654C45.3232 39.4007 45.601 39.3131 45.8846 39.3131V39.3131ZM22.5438 41.7808C22.4555 41.7754 22.3672 41.7938 22.2871 41.8343C22.2069 41.8748 22.1372 41.9362 22.0843 42.0129C22.0313 42.0897 21.9968 42.1794 21.9837 42.2742C21.9706 42.3689 21.9794 42.4657 22.0093 42.5558C23.7988 47.9644 26.7266 51.2944 30.0185 51.2944C32.4195 51.2944 34.641 49.5226 36.3731 46.404C36.4094 46.3387 36.4334 46.2663 36.4439 46.1909C36.4543 46.1156 36.4509 46.0387 36.4339 45.9648C36.4168 45.8909 36.3865 45.8213 36.3446 45.7601C36.3028 45.6988 36.2502 45.6471 36.1898 45.6079C36.0679 45.5287 35.9219 45.5051 35.7839 45.5423C35.646 45.5795 35.5273 45.6745 35.454 45.8063C33.8973 48.6091 31.9853 50.134 30.0185 50.134C27.284 50.134 24.6726 47.1638 23.0185 42.1644C22.9829 42.057 22.919 41.9634 22.8345 41.8952C22.7501 41.827 22.649 41.7872 22.5438 41.7808V41.7808Z" fill="black"/>
</g>
<defs>
<clipPath id="clip0">
<rect width="40" height="43.2944" fill="white" transform="translate(10 8)"/>
</clipPath>
</defs>
</svg>
