<svg width="60" height="60" viewBox="0 0 60 60" fill="none" xmlns="http://www.w3.org/2000/svg">
<rect width="60" height="60" rx="30" fill="white"/>
<path d="M36.42 24.9683H28.7733V10H36.42C40.5466 10 43.9033 13.3567 43.9033 17.4833C43.9033 21.61 40.5466 24.9683 36.42 24.9683ZM31.225 22.5167H36.42C39.195 22.5167 41.4516 20.2583 41.4516 17.485C41.4516 14.7117 39.1933 12.4533 36.42 12.4533H31.225V22.5167ZM31.225 24.9683H23.58C19.4533 24.9683 16.0966 21.6117 16.0966 17.485C16.0966 13.3583 19.4533 10 23.58 10H31.2266V24.9683H31.225ZM23.58 12.4517C20.805 12.4517 18.5483 14.71 18.5483 17.4833C18.5483 20.2567 20.805 22.5167 23.58 22.5167H28.775V12.4517H23.58ZM31.225 37.4833H23.58C19.4533 37.4833 16.0966 34.1267 16.0966 30C16.0966 25.8733 19.4533 22.5167 23.58 22.5167H31.2266V37.4833H31.225ZM23.58 24.9683C20.805 24.9683 18.5483 27.2267 18.5483 30C18.5483 32.7733 20.8066 35.0317 23.58 35.0317H28.775V24.9683H23.58ZM23.62 50C19.4716 50 16.095 46.6433 16.095 42.5167C16.095 38.39 19.4516 35.0333 23.5783 35.0333H31.225V42.435C31.225 46.6067 27.8133 50 23.62 50ZM23.58 37.4833C22.246 37.4851 20.9672 38.0158 20.024 38.959C19.0808 39.9023 18.5501 41.1811 18.5483 42.515C18.5483 45.29 20.8233 47.5467 23.6216 47.5467C26.4633 47.5467 28.7766 45.2533 28.7766 42.4333V37.4833H23.58ZM36.42 37.4833H36.2566C32.13 37.4833 28.7733 34.1267 28.7733 30C28.7733 25.8733 32.13 22.5167 36.2566 22.5167H36.42C40.5466 22.5167 43.9033 25.8733 43.9033 30C43.9033 34.1267 40.5466 37.4833 36.42 37.4833ZM36.2583 24.9683C33.4833 24.9683 31.2266 27.2267 31.2266 30C31.2266 32.7733 33.485 35.0317 36.2583 35.0317H36.4216C39.1966 35.0317 41.4533 32.7733 41.4533 30C41.4533 27.2267 39.195 24.9683 36.4216 24.9683H36.2583Z" fill="black"/>
</svg>
