<svg width="60" height="60" viewBox="0 0 60 60" fill="none" xmlns="http://www.w3.org/2000/svg">
<rect width="60" height="60" rx="30" fill="white"/>
<g clip-path="url(#clip0)">
<path d="M16.4833 36.1203L20.425 10.7687C20.4533 10.5806 20.5402 10.4063 20.6733 10.2705C20.8065 10.1347 20.9791 10.0444 21.1665 10.0125C21.354 9.98053 21.5468 10.0085 21.7174 10.0926C21.888 10.1766 22.0277 10.3123 22.1167 10.4803L26.355 18.432L16.4833 36.1203ZM44.4733 42.2737L40.7233 18.9403C40.6976 18.7754 40.6266 18.6209 40.5181 18.4941C40.4097 18.3673 40.2681 18.2731 40.1092 18.2221C39.9503 18.1711 39.7803 18.1652 39.6183 18.2053C39.4563 18.2453 39.3086 18.3295 39.1917 18.4487L15.5267 42.2753L28.62 49.6537C29.0241 49.8807 29.4798 50 29.9433 50C30.4069 50 30.8626 49.8807 31.2667 49.6537L44.4733 42.2737ZM33.8333 21.912L30.8 16.1087C30.7235 15.9627 30.6085 15.8405 30.4675 15.7552C30.3265 15.67 30.1648 15.6249 30 15.6249C29.8352 15.6249 29.6736 15.67 29.5325 15.7552C29.3915 15.8405 29.2765 15.9627 29.2 16.1087L15.8833 39.9737L33.8333 21.912Z" fill="black"/>
</g>
<defs>
<clipPath id="clip0">
<rect width="40" height="40" fill="white" transform="translate(10 10)"/>
</clipPath>
</defs>
</svg>
