<svg width="60" height="60" viewBox="0 0 60 60" fill="none" xmlns="http://www.w3.org/2000/svg">
<path d="M30.0025 0.0174561C13.315 0.0174561 0.0175476 13.315 0.0175476 30C0.0175476 46.685 13.315 59.9875 30 59.9875C46.685 59.9875 59.985 46.69 59.985 30.0025C59.985 13.315 46.69 0.0174561 30.0025 0.0174561ZM6.53505 30.2625L29.7425 53.47C16.965 53.47 6.53505 43.04 6.53505 30.2625ZM35.2175 52.9475L7.05755 24.7875C9.40005 14.3575 18.79 6.53496 30 6.53496C33.7066 6.5422 37.3597 7.41908 40.6657 9.09509C43.9717 10.7711 46.8383 13.1995 49.035 16.185L45.6475 19.05C43.881 16.4646 41.5071 14.3521 38.7342 12.8976C35.9612 11.4431 32.8738 10.6911 29.7425 10.7075C25.7829 10.682 21.9154 11.9017 18.6867 14.1942C15.458 16.4866 13.0314 19.7358 11.75 23.4825L36.26 47.995C42.26 45.9075 46.95 40.695 48.255 34.435H38.085V30.0025H53.47C53.47 41.215 45.6475 50.6025 35.2175 52.9475Z" fill="white"/>
</svg>
