<svg width="60" height="60" viewBox="0 0 60 60" fill="none" xmlns="http://www.w3.org/2000/svg">
<rect width="60" height="60" rx="30" fill="white"/>
<g clip-path="url(#clip0)">
<path d="M13.0183 27.0517C12.94 27.0517 12.9217 27.0134 12.96 26.9534L13.37 26.4284C13.4083 26.3701 13.505 26.3317 13.5833 26.3317H20.5367C20.6133 26.3317 20.6333 26.3901 20.595 26.4484L20.2633 26.9534C20.225 27.0134 20.1267 27.0701 20.0683 27.0701L13.0183 27.0517ZM10.0783 28.8434C10 28.8434 9.98 28.8051 10.02 28.7467L10.4283 28.2201C10.4667 28.1617 10.565 28.1234 10.6433 28.1234H19.5233C19.6017 28.1234 19.64 28.1817 19.62 28.2401L19.465 28.7067C19.445 28.7851 19.3683 28.8234 19.29 28.8234L10.0783 28.8434ZM14.7917 30.6351C14.7133 30.6351 14.6933 30.5767 14.7333 30.5184L15.005 30.0317C15.0433 29.9734 15.1217 29.9151 15.2 29.9151H19.095C19.1733 29.9151 19.2117 29.9734 19.2117 30.0517L19.1733 30.5184C19.1733 30.5967 19.095 30.6551 19.0367 30.6551L14.7917 30.6351ZM35.0067 26.7017C33.78 27.0134 32.9417 27.2467 31.735 27.5584C31.4417 27.6351 31.4233 27.6551 31.1683 27.3634C30.8783 27.0317 30.6633 26.8184 30.255 26.6234C29.0267 26.0201 27.8383 26.1951 26.73 26.9151C25.405 27.7717 24.7233 29.0384 24.7433 30.6151C24.7617 32.1734 25.8333 33.4584 27.3717 33.6734C28.6967 33.8484 29.805 33.3817 30.6833 32.3901C30.8583 32.1734 31.0133 31.9401 31.2083 31.6667H27.45C27.0417 31.6667 26.9433 31.4134 27.08 31.0834C27.3333 30.4801 27.8 29.4667 28.0733 28.9601C28.1151 28.8662 28.1834 28.7866 28.2699 28.7312C28.3564 28.6758 28.4573 28.647 28.56 28.6484H35.6483C35.61 29.1751 35.61 29.7001 35.5317 30.2267C35.3299 31.6133 34.7807 32.9262 33.935 34.0434C32.5333 35.8934 30.7017 37.0434 28.385 37.3534C26.4767 37.6067 24.7033 37.2367 23.1467 36.0701C21.705 34.9784 20.8867 33.5367 20.6733 31.7451C20.42 29.6217 21.0433 27.7134 22.3283 26.0384C23.7117 24.2284 25.5417 23.0784 27.7817 22.6717C29.6117 22.3384 31.365 22.5551 32.9417 23.6234C33.975 24.3067 34.7133 25.2401 35.2017 26.3701C35.3183 26.5451 35.24 26.6434 35.0067 26.7034V26.7017ZM41.4533 37.4717C39.68 37.4317 38.0633 36.9251 36.7 35.7567C35.5658 34.8009 34.8182 33.465 34.5967 31.9984C34.2467 29.7984 34.85 27.8501 36.175 26.1167C37.5967 24.2467 39.31 23.2734 41.6283 22.8667C43.615 22.5167 45.485 22.7084 47.1783 23.8584C48.7167 24.9084 49.6717 26.3317 49.925 28.2001C50.255 30.8301 49.4967 32.9717 47.685 34.8034C46.4 36.1084 44.8217 36.9251 43.01 37.2951C42.485 37.3951 41.96 37.4117 41.4533 37.4717ZM46.0867 29.6051C46.0683 29.3501 46.0683 29.1551 46.03 28.9601C45.68 27.0317 43.9067 25.9434 42.0567 26.3701C40.245 26.7784 39.0767 27.9284 38.6483 29.7584C38.2983 31.2784 39.0383 32.8167 40.44 33.4417C41.5117 33.9084 42.5817 33.8484 43.615 33.3251C45.1533 32.5251 45.99 31.2784 46.0883 29.6034L46.0867 29.6051Z" fill="black"/>
</g>
<defs>
<clipPath id="clip0">
<rect width="40" height="40" fill="white" transform="translate(10 10)"/>
</clipPath>
</defs>
</svg>
