<svg width="60" height="60" viewBox="0 0 60 60" fill="none" xmlns="http://www.w3.org/2000/svg">
<rect width="60" height="60" rx="30" fill="white"/>
<path d="M33.2184 14.585L41.4434 19.335C42.8034 17.9033 45.065 17.8467 46.4967 19.2067C46.7434 19.44 46.9534 19.7083 47.125 20.0017C48.1067 21.715 47.5117 23.9 45.7984 24.8817C45.5084 25.0483 45.1967 25.1733 44.8684 25.2533V34.7517C46.7784 35.2067 47.9584 37.1233 47.5017 39.0333C47.4217 39.3733 47.29 39.7 47.115 40.0017C46.1284 41.7067 43.9467 42.2917 42.2367 41.305C41.91 41.1167 41.6117 40.8733 41.36 40.59L33.185 45.31C33.805 47.1833 32.7884 49.2017 30.9167 49.82C30.555 49.9383 30.18 50 29.8 50C27.8317 50.0017 26.235 48.4083 26.2334 46.44C26.2334 46.0983 26.2817 45.7567 26.38 45.425L18.1534 40.68C16.7934 42.1033 14.535 42.1583 13.11 40.7967C11.6867 39.4367 11.6334 37.1783 12.9934 35.7533C13.465 35.2583 14.07 34.91 14.7334 34.7483L14.735 25.25C12.8184 24.79 11.6384 22.8617 12.1 20.9433C12.1784 20.6133 12.305 20.295 12.4734 20C13.46 18.2933 15.6434 17.71 17.3517 18.6967C17.6467 18.865 17.9167 19.0767 18.1517 19.325L26.3817 14.575C25.8217 12.6867 26.9 10.705 28.7834 10.1467C29.1117 10.0483 29.4567 10 29.8 10C31.7684 9.99833 33.365 11.59 33.3667 13.5567C33.3684 13.905 33.3167 14.2533 33.2184 14.585ZM32.36 16.0467C32.3284 16.0817 32.2984 16.1117 32.2634 16.1433L43.0317 34.7933C43.075 34.7783 43.125 34.7667 43.1684 34.755V25.2433C41.26 24.7717 40.0984 22.84 40.5717 20.93C40.5817 20.89 40.5917 20.8483 40.6034 20.81L32.36 16.0467ZM27.335 16.145L27.235 16.045L18.9917 20.7983C19.5367 22.69 18.4467 24.6617 16.5567 25.2067C16.5134 25.22 16.4717 25.23 16.43 25.2417V34.755L16.57 34.7933L27.3384 16.1433L27.335 16.145ZM30.795 16.99C30.145 17.1767 29.4567 17.1767 28.8084 16.99L18.0417 35.6383C18.5317 36.11 18.8784 36.7133 19.0417 37.3733H40.56C40.7217 36.71 41.0717 36.105 41.565 35.6333L30.795 16.99ZM32.4384 44.035L40.6267 39.305C40.6017 39.2267 40.5817 39.1483 40.5634 39.0683H19.0367L19.0017 39.2067L27.2334 43.96C27.88 43.2867 28.79 42.8717 29.8 42.8717C30.845 42.8717 31.7834 43.32 32.4384 44.035Z" fill="black"/>
</svg>
