<svg width="60" height="60" viewBox="0 0 60 60" fill="none" xmlns="http://www.w3.org/2000/svg">
<g clip-path="url(#clip0)">
<path d="M35.1274 6.8775L47.4649 14.0025C49.5049 11.855 52.8974 11.77 55.0449 13.81C55.4149 14.16 55.7299 14.5625 55.9874 15.0025C57.4599 17.5725 56.5674 20.85 53.9974 22.3225C53.5624 22.5725 53.0949 22.76 52.6024 22.88V37.1275C55.4674 37.81 57.2374 40.685 56.5524 43.55C56.4324 44.06 56.2349 44.55 55.9724 45.0025C54.4924 47.56 51.2199 48.4375 48.6549 46.9575C48.1649 46.675 47.7174 46.31 47.3399 45.885L35.0774 52.965C36.0074 55.775 34.4824 58.8025 31.6749 59.73C31.1324 59.9075 30.5699 60 29.9999 60C27.0474 60.0025 24.6524 57.6125 24.6499 54.66C24.6499 54.1475 24.7224 53.635 24.8699 53.1375L12.5299 46.02C10.4899 48.155 7.10244 48.2375 4.96494 46.195C2.82994 44.155 2.74994 40.7675 4.78994 38.63C5.49744 37.8875 6.40494 37.365 7.39994 37.1225L7.40244 22.875C4.52744 22.185 2.75744 19.2925 3.44994 16.415C3.56744 15.92 3.75744 15.4425 4.00994 15C5.48994 12.44 8.76494 11.565 11.3274 13.045C11.7699 13.2975 12.1749 13.615 12.5274 13.9875L24.8724 6.8625C24.0324 4.03 25.6499 1.0575 28.4749 0.220002C28.9674 0.072502 29.4849 1.96156e-06 29.9999 1.96156e-06C32.9524 -0.00249804 35.3474 2.385 35.3499 5.335C35.3524 5.8575 35.2749 6.38 35.1274 6.8775ZM33.8399 9.07C33.7924 9.1225 33.7474 9.1675 33.6949 9.215L49.8474 37.19C49.9124 37.1675 49.9874 37.15 50.0524 37.1325V22.865C47.1899 22.1575 45.4474 19.26 46.1574 16.395C46.1724 16.335 46.1874 16.2725 46.2049 16.215L33.8399 9.07V9.07ZM26.3024 9.2175L26.1524 9.0675L13.7874 16.1975C14.6049 19.035 12.9699 21.9925 10.1349 22.81C10.0699 22.83 10.0074 22.845 9.94494 22.8625V37.1325L10.1549 37.19L26.3074 9.215L26.3024 9.2175V9.2175ZM31.4924 10.485C30.5174 10.765 29.4849 10.765 28.5124 10.485L12.3624 38.4575C13.0974 39.165 13.6174 40.07 13.8624 41.06H46.1399C46.3824 40.065 46.9074 39.1575 47.6474 38.45L31.4924 10.485ZM33.9574 51.0525L46.2399 43.9575C46.2024 43.84 46.1724 43.7225 46.1449 43.6025H13.8549L13.8024 43.81L26.1499 50.94C27.1199 49.93 28.4849 49.3075 29.9999 49.3075C31.5674 49.3075 32.9749 49.98 33.9574 51.0525Z" fill="white"/>
</g>
<defs>
<clipPath id="clip0">
<rect width="60" height="60" fill="white"/>
</clipPath>
</defs>
</svg>
