<svg width="60" height="60" viewBox="0 0 60 60" fill="none" xmlns="http://www.w3.org/2000/svg">
<path d="M0 30V60H30H60V30V-1.45286e-06H30H0V30ZM34.9297 12.2378C35.4559 12.3568 35.7514 12.555 35.7982 12.818C35.9423 13.6288 35.7261 15.8595 35.4414 16.4901C35.3297 16.7387 35.0847 16.991 34.9009 17.0414C34.4793 17.1604 33.4306 17.1135 33.1315 16.9658C33.009 16.9045 32.9586 16.8468 32.836 16.5982C32.6631 16.2667 32.6198 16.0865 32.4865 15.2252C32.3784 14.5081 32.3676 13.8883 32.4505 13.1712C32.4829 12.9117 32.5153 12.6739 32.5261 12.6378C32.5838 12.4577 33.0667 12.2414 33.5496 12.1838C33.9099 12.1369 34.6054 12.1658 34.9297 12.2378ZM32.6306 16.8649C32.8144 17.0414 33.027 17.2144 33.1027 17.2504C33.218 17.3009 33.3946 17.3153 34.0577 17.3261L34.8721 17.3405L35.0559 17.2468C35.1604 17.1964 35.373 17.0486 35.5315 16.9189C35.6865 16.7928 35.827 16.7027 35.8378 16.7243C35.8523 16.7423 35.8631 17.1027 35.8667 17.5243L35.8739 18.2847L35.5135 18.4757C35.3153 18.5802 35.0883 18.6739 35.009 18.6847C34.7712 18.7207 33.445 18.3676 32.9153 18.1261C32.7676 18.0613 32.6631 17.982 32.591 17.8883C32.5333 17.809 32.418 17.6649 32.3315 17.5604L32.1766 17.373L32.2198 16.9586C32.245 16.7279 32.2739 16.5405 32.2847 16.5405C32.2955 16.5405 32.4505 16.6847 32.6306 16.8649ZM31.4559 17.6793C31.7297 17.7405 31.9423 17.8306 32.1514 17.9748C32.2378 18.0324 32.3459 18.0901 32.3964 18.1009C32.4468 18.1117 32.6414 18.1766 32.8324 18.245C33.0234 18.3171 33.5423 18.4649 33.9856 18.5766C34.6486 18.7459 34.8288 18.7784 34.9874 18.764C35.1928 18.7423 35.5964 18.5658 36.018 18.3099C36.4577 18.0468 36.8036 18.036 37.2865 18.2703C37.5171 18.3856 37.8342 18.6919 37.9351 18.9009C37.9892 19.0126 37.9892 19.0126 38.2234 18.9982L38.4541 18.9838L38.627 19.1604L38.8036 19.3405L39.0198 19.2865C39.218 19.2324 39.2396 19.2324 39.3297 19.2937C39.4559 19.373 39.5279 19.5243 39.4631 19.564C39.4378 19.582 39.2505 19.6036 39.0414 19.6144L38.6667 19.6396L38.4757 19.4847C38.2306 19.2865 37.8883 19.0955 37.5604 18.9802C37.4198 18.9297 37.218 18.8432 37.1171 18.7892C36.7856 18.6162 36.5297 18.6306 35.7117 18.8685C35.3514 18.973 35.1964 18.9982 34.9369 19.0018C34.591 19.0054 34.5081 18.991 33.6937 18.7676C33.2685 18.6523 33.0919 18.6198 32.7387 18.6054C32.4505 18.591 32.2595 18.6018 32.1622 18.6306C32.0829 18.6523 31.7658 18.6811 31.4595 18.6919C30.782 18.7135 30.4144 18.6559 29.9279 18.4504C29.6 18.3135 29.3838 18.2595 28.9982 18.2126L28.7856 18.1874L28.8901 18.1189C29.1423 17.9459 29.355 17.8631 29.5243 17.8631C29.7369 17.8667 30.0793 18.0252 30.3171 18.2378C30.5189 18.4108 30.5333 18.382 30.364 18.1441L30.2414 17.9712L30.3351 17.8955C30.5117 17.7477 30.6703 17.6504 30.7676 17.6216C30.8829 17.5856 31.1315 17.6072 31.4559 17.6793ZM29.6577 18.5405C29.7261 18.5658 29.8883 18.627 30.018 18.6775C30.3784 18.8144 30.7568 18.8613 31.4775 18.8577C31.9532 18.8541 32.209 18.836 32.4324 18.7892C32.8793 18.6955 33.0595 18.7099 33.7838 18.9009C34.3063 19.0378 34.5117 19.0739 34.8324 19.0883C35.2036 19.1063 35.2649 19.0991 35.6252 18.9982C36.2414 18.8216 36.4685 18.7748 36.7171 18.7748C36.9225 18.7748 36.9694 18.7892 37.1712 18.9153C37.2937 18.991 37.5135 19.1135 37.6613 19.182C37.9964 19.3441 38.5009 19.6793 38.7315 19.8955C39.2721 20.4072 39.6108 21.8018 39.2793 22.173C39.1387 22.3315 38.9874 22.3171 38.4973 22.0973C38.0108 21.8739 37.6432 21.7514 37.1748 21.6504C36.8757 21.5892 36.6955 21.5748 36.1441 21.5784C35.0883 21.582 34.3568 21.6757 33.3874 21.9315C32.9477 22.0468 32.8288 22.0649 32.4505 22.0685C32.0216 22.0721 32.0144 22.0721 31.7369 21.9387C31.4847 21.8162 30.7676 21.3514 30.3351 21.0234L30.1658 20.8973L30.0036 21.1784C29.9099 21.3405 29.8378 21.5063 29.8378 21.5676C29.8378 21.7261 29.7081 22.245 29.6 22.5189C29.2577 23.3766 28.627 23.9676 28.0432 23.9748C27.8234 23.9748 27.755 23.9495 27.3874 23.7369C27.2973 23.6865 27.1351 23.6036 27.0234 23.5532L26.8216 23.4667L27.2793 23.9207C27.827 24.4685 27.9748 24.6955 28.3423 25.5532C28.7423 26.4757 29.0811 27.0414 29.618 27.6829C29.7946 27.8955 29.8342 27.9279 29.9459 27.9279C30.2162 27.9315 30.6486 28.036 30.9045 28.1586C31.1135 28.2559 31.2505 28.364 31.5279 28.6306C31.9243 29.0162 31.9712 29.1099 31.8703 29.3045C31.7946 29.4559 31.2324 30.0108 30.9009 30.2703C30.6847 30.436 30.6198 30.4649 30.4613 30.4793C30.2054 30.5009 29.8739 30.3532 29.8739 30.2198C29.8739 30.1514 29.8126 30.0865 29.6036 29.9279C29.1387 29.5784 28.9982 29.3441 29.0126 28.955C29.0198 28.7676 29.009 28.7063 28.9514 28.645C28.8216 28.5009 27.8739 27.9027 27.045 27.4414C26.591 27.1856 26.0721 26.8901 25.8919 26.7856C25.2721 26.4108 24.7856 26 24.5477 25.6504C24.4036 25.4378 24.209 24.9369 24.1261 24.5658C24.0252 24.1153 24.0793 23.9135 24.3856 23.5351C24.7027 23.1459 24.8649 22.7928 25.0667 22.0432C25.2577 21.3405 25.3838 21.1351 25.7477 20.9441C26.1405 20.7387 26.591 20.8504 26.9838 21.2541C27.1315 21.4054 27.1748 21.4342 27.1532 21.3658C27.0739 21.0955 26.7892 20.7604 26.4973 20.5874C26.3568 20.5081 26.3423 20.4829 26.3423 20.3604C26.3423 20.1658 26.4577 19.8162 26.5946 19.6036C26.8432 19.2144 27.3946 18.818 27.9099 18.6559C28.0973 18.5946 28.5946 18.5009 28.8468 18.4757C29.0703 18.4504 29.5171 18.4901 29.6577 18.5405ZM26.1261 19.373C26.1261 19.3874 26.0937 19.4486 26.0577 19.5099C25.9568 19.6685 25.8018 20.1514 25.8018 20.2991C25.8018 20.4504 25.7586 20.4865 25.5532 20.5189C25.3261 20.555 24.991 20.7423 24.8324 20.9261C24.627 21.1568 24.4541 21.5171 24.3099 22.0072C24.1514 22.5405 24.0396 22.8504 23.9856 22.9045C23.964 22.9261 23.7117 23.045 23.4234 23.1712C21.0775 24.191 16.991 26.1982 15.3333 27.1459C14.8 27.4486 13.9532 27.9568 13.8919 28.0072C13.8739 28.0252 13.5928 28.2162 13.2685 28.4324C11.9676 29.3045 10.7351 30.3027 9.96757 31.0955C9.83063 31.2396 9.71532 31.3477 9.7045 31.3405C9.67207 31.3045 9.8955 30.3856 10.0541 29.9027C10.5405 28.4396 11.2865 27.2613 12.5009 26.0504C13.3441 25.2072 14.2234 24.5369 15.4955 23.7658C18.4577 21.9676 21.1532 20.8144 25.2072 19.6036C26.0396 19.355 26.1261 19.3333 26.1261 19.373ZM39.6396 19.9171C39.9243 19.9928 40.0937 20.1045 40.364 20.3856C40.7532 20.7856 40.9369 21.2324 40.9369 21.7622C40.9369 22.0757 40.8505 22.5225 40.7423 22.782C40.6847 22.9153 40.6847 22.9189 40.8072 23.0883C41.1892 23.6288 41.3333 24.2162 41.2108 24.764C41.1459 25.0631 41.1315 25.0811 40.7964 25.2793C40.5874 25.4054 40.2667 25.6865 40.2991 25.7153C40.3063 25.7225 40.4288 25.6793 40.5766 25.618C41.2216 25.3477 41.6757 25.4919 41.8595 26.0252C41.964 26.3135 41.9532 26.9225 41.8414 27.2757C41.6901 27.7694 41.3153 28.4396 41.0018 28.7784C40.9081 28.8793 40.8432 29.0054 40.7892 29.1748C40.5333 30 40 30.6955 39.5459 30.7892C39.2937 30.8432 38.7423 30.6667 38.3604 30.4072L38.1838 30.2883L38.1045 29.8919C38.0613 29.6721 38.018 29.373 38.0144 29.2252C38.0036 28.9586 38.0072 28.9477 38.1261 28.7964C38.1946 28.7099 38.3243 28.591 38.4144 28.5297C38.5622 28.4288 38.6054 28.418 39.0018 28.3892C39.4342 28.3604 39.6901 28.3135 39.7766 28.245C39.8847 28.155 39.7802 27.8378 39.5351 27.5135C39.2505 27.1387 39.2252 27.0595 39.2252 26.5694C39.2252 26.155 39.2288 26.1261 39.3117 26.0396C39.3658 25.982 39.4595 25.9351 39.5423 25.9207C39.7153 25.8955 39.6793 25.8595 39.4054 25.8054C39.1387 25.7477 38.8685 25.6252 38.7099 25.4919L38.5874 25.3874L38.8757 24.8C39.2072 24.1261 39.2649 23.9063 39.236 23.3802L39.218 23.0414L39.3694 22.9766C39.4559 22.9441 39.5964 22.8685 39.6865 22.8108C39.827 22.7243 39.8523 22.6847 39.8955 22.5189C39.9604 22.2523 39.9532 21.7261 39.8775 21.4414C39.7586 20.9802 39.4667 20.4613 39.0991 20.0613C38.9297 19.8739 38.9225 19.8595 38.9982 19.8486C39.1351 19.827 39.4306 19.8595 39.6396 19.9171ZM30.7676 21.791C30.9225 21.9063 31.1928 22.0757 31.3694 22.1694C32.0685 22.5261 32.5045 22.6162 33.009 22.5045C34.5261 22.1694 34.9297 22.1153 35.8378 22.1153C36.8288 22.1153 37.5892 22.2559 38.3243 22.5694C38.5982 22.6847 38.6126 22.6991 38.6414 22.8324C38.6847 23.0306 38.645 23.5351 38.5622 23.8631C38.5225 24.018 38.382 24.3712 38.2523 24.6523C37.9784 25.2396 37.827 25.6649 37.7297 26.1333C37.6432 26.5441 37.5856 27.1459 37.5856 27.6108V27.9568L37.4523 27.9784C36.7207 28.0901 34.9874 28.1189 34.4649 28.0252C33.9135 27.9243 33.0991 27.618 32.3423 27.2144C31.7838 26.9225 31.8018 26.9405 31.7153 26.4144C31.6757 26.1658 31.6324 25.8739 31.618 25.7622L31.5964 25.5604L31.755 25.4703C31.9423 25.3586 32.2883 25.0847 32.2883 25.0486C32.2883 25.0342 32.1189 25.027 31.9135 25.0378C31.2432 25.0667 30.9622 24.9189 30.1477 24.1045C29.6216 23.5784 29.6144 23.5676 29.6721 23.4883C29.9964 23.0306 30.1622 22.5117 30.1622 21.9459C30.1622 21.6036 30.173 21.5459 30.2378 21.4595L30.3171 21.3622L30.4036 21.4739C30.4505 21.5315 30.6126 21.6757 30.7676 21.791ZM23.2432 24.155C23.2432 24.4432 23.3658 24.8216 23.636 25.3838C24.0937 26.3207 24.5333 26.7063 25.9099 27.3766C26.2955 27.564 26.8396 27.8306 27.1171 27.964C27.6288 28.2162 28.1225 28.5045 28.4541 28.7568C28.6378 28.8937 28.6378 28.8973 28.6559 29.1315C28.6811 29.445 28.782 29.636 29.0739 29.9315C29.3081 30.1694 29.3189 30.1874 29.3045 30.3279C29.2937 30.4613 29.3045 30.4829 29.4198 30.573C29.5892 30.6991 29.8198 30.8 30.0108 30.8324C30.0937 30.8468 30.1622 30.8685 30.1622 30.8829C30.1622 30.8973 30.0721 31.164 29.964 31.4811C29.2505 33.564 29.045 35.4883 29.373 37.0739L29.4414 37.409L29.3225 37.564C29.0342 37.9351 28.5982 38.4504 28.5694 38.4504C28.5117 38.4504 28.2631 38.3135 28.1477 38.2162C28.0865 38.1622 27.9243 37.9712 27.7874 37.791C27.1676 36.9658 26.4 36.4036 25.4631 36.0901C24.7063 35.8378 24.2811 35.7838 22.9081 35.7694C21.7405 35.7586 21.3333 35.7153 20.6847 35.5459C19.1243 35.1351 18.2018 34.2342 17.755 32.6811C17.6721 32.4072 17.6252 32.1117 17.4559 30.8108C17.2901 29.5423 16.8829 28.3964 16.3423 27.6793C16.2306 27.5351 16.1441 27.409 16.1514 27.4054C16.1586 27.3982 16.5514 27.1856 17.027 26.9261C18.8577 25.9387 21.1856 24.7712 22.1441 24.3604C22.555 24.1838 23.1315 23.9676 23.2 23.964C23.2288 23.964 23.2432 24.0252 23.2432 24.155ZM29.2036 24.5189C29.5532 24.8721 29.9315 25.1784 30.436 25.5171C30.8613 25.8018 30.8144 25.7009 30.991 26.7171C31.0703 27.1748 31.0919 27.373 31.0667 27.3982C31.045 27.4198 31.027 27.5099 31.027 27.6036C31.027 27.8595 31.0054 27.8739 30.7171 27.809C30.5802 27.7766 30.3676 27.7405 30.2414 27.7261L30.0144 27.7009L29.7874 27.409C29.2829 26.764 29.0126 26.2559 28.7532 25.4703C28.6559 25.1748 28.5261 24.836 28.4649 24.7171C28.4036 24.5946 28.3604 24.4937 28.3676 24.4865C28.3892 24.4613 28.8468 24.2234 28.8757 24.2198C28.8901 24.2162 29.0378 24.3532 29.2036 24.5189ZM32.0541 27.7081C32.2811 27.8126 33.355 28.1225 33.8054 28.2126C34.7351 28.4 35.9856 28.4324 37.2793 28.3027L37.4955 28.2811L37.5027 28.6162C37.5135 29.0234 37.6108 29.6144 37.8018 30.4144C38.018 31.3405 38.2234 32.6486 38.3099 33.6757C38.3604 34.2775 38.3351 35.2072 38.2559 35.6468C38.1441 36.2631 37.8991 36.8757 37.6216 37.2216L37.5207 37.3514L37.5387 37.8739C37.564 38.4973 37.5279 38.7135 37.2649 39.5135L37.0847 40.0541L36.7315 40.0937C36.1153 40.1658 35.218 40.191 34.7423 40.1477C34.1658 40.0973 33.8018 40.036 33.8018 39.9892C33.8018 39.8883 34.0577 39.4559 34.227 39.2721C34.4505 39.0342 34.7099 38.8937 35.0018 38.8613L35.1964 38.8396L35.182 38.5802C35.1351 37.8667 35.009 37.3766 34.6126 36.4144L34.3748 35.8414L34.4468 35.6757C34.6667 35.1604 34.8 34.5838 34.973 33.391C35.0919 32.5838 35.2757 31.5495 35.3369 31.3658C35.3514 31.3117 35.3405 31.3189 35.2829 31.3874C35.1099 31.5928 34.8937 32.2631 34.4505 33.964C34.2523 34.7243 34.1189 35.1099 33.9063 35.564C33.5459 36.3315 33.0378 36.9658 32.3496 37.5099L31.9712 37.8126L31.9459 38C31.9099 38.2919 31.7514 38.5802 31.4414 38.9189C31.0559 39.3405 30.7604 39.9532 31.1099 39.6108C31.3694 39.355 31.373 39.3658 31.3153 40.1261C31.2541 40.9225 31.0486 41.6 30.4793 42.8613C30.3027 43.2541 30.1261 43.6937 30.0901 43.8378C30.018 44.1153 29.9496 44.8505 29.9423 45.3658C29.9387 45.809 29.9207 45.8486 29.7297 45.8883C29.4414 45.9459 28.6306 45.8306 28.1982 45.6757L28.0505 45.6216L28.0973 45.2288C28.1189 45.0126 28.1658 44.3387 28.1982 43.7261C28.2919 41.8847 28.4 41.0486 28.6486 40.1802C28.6883 40.0504 28.7243 39.8991 28.7351 39.845C28.8144 39.3946 29.1027 38.8973 29.7946 38.0252L30.2306 37.4775L30.1802 37.3333C30.0937 37.0919 29.9532 36.3964 29.9063 36C29.845 35.4703 29.8847 34.2811 29.982 33.6396C30.1441 32.573 30.5694 30.8685 30.6919 30.7928C31.1784 30.4973 31.4883 30.2523 31.8667 29.8667C32.3279 29.391 32.3604 29.3477 32.3604 29.2072C32.3604 29.0523 32.2595 28.8973 31.9748 28.609L31.7045 28.3351L31.7441 28.1405C31.7658 28.0324 31.791 27.8667 31.8018 27.773C31.8162 27.6757 31.8342 27.6036 31.8486 27.6108C31.8631 27.618 31.9568 27.6613 32.0541 27.7081ZM33.4306 40.3604C34.0685 40.6018 35.6721 40.609 36.9802 40.3784C37.3261 40.3171 37.4667 40.3099 37.4919 40.3568C37.5027 40.3748 37.4919 40.4504 37.4631 40.5261C37.4162 40.6595 37.3766 40.8829 37.1712 42.1622C37.0342 43.0198 36.9982 43.6937 37.0198 45.009L37.0378 46.1802L37.182 46.3063C37.2613 46.3748 37.6288 46.5946 38.0036 46.7928C38.3748 46.991 38.8108 47.2396 38.9694 47.3477C39.4162 47.6432 39.773 47.809 40.4649 48.0432C41.1243 48.2631 41.3477 48.3748 41.3802 48.5009C41.4342 48.7135 41.0667 48.8757 40.3676 48.9405C39.8667 48.9874 39.6505 48.973 38.4865 48.8108C37.2973 48.645 36.991 48.6198 35.7297 48.5946C34.5369 48.5694 34.2883 48.5405 34.0649 48.4108C33.845 48.2847 33.791 48.155 33.809 47.8234C33.8234 47.5964 33.8559 47.4811 34 47.1532C34.3171 46.4216 34.3207 46.418 34.3171 45.8378C34.3171 45.0342 34.2234 44.2486 34.0685 43.7658C34.036 43.6649 33.8955 43.3081 33.755 42.973C33.4631 42.2631 33.4126 42.1009 33.2649 41.3694C33.1496 40.8144 33.1243 40.4793 33.1892 40.3568C33.236 40.2739 33.2036 40.2739 33.4306 40.3604ZM29.2721 46.1297C29.5604 46.173 29.6937 46.2378 29.6937 46.3351C29.6937 46.3712 29.7333 46.5225 29.7838 46.6667C29.8883 46.9694 29.8955 47.0919 29.8198 47.1207C29.791 47.1351 29.7225 47.1171 29.6721 47.0811C29.6216 47.0486 29.5712 47.027 29.564 47.0378C29.5135 47.0883 29.7982 48.1514 29.9892 48.6306C30.191 49.1423 30.1586 49.3081 29.8198 49.4883C29.4955 49.6613 28.0036 49.5892 27.5928 49.3802C27.0883 49.1279 26.9405 48.9477 26.9441 48.5874C26.9477 48.2631 27.0667 48.0396 27.4162 47.7045C27.5676 47.5604 27.827 47.3441 27.9892 47.2288C28.155 47.1099 28.2847 47.009 28.2775 47.0054C28.2739 46.9982 28.1694 47.0198 28.0432 47.0523C27.6973 47.1387 27.6613 47.0991 27.7658 46.7459C27.8054 46.6126 27.8775 46.5045 28.018 46.3532C28.1261 46.2414 28.2162 46.1333 28.2162 46.1189C28.2162 46.0757 28.973 46.0829 29.2721 46.1297Z" fill="white"/>
</svg>
