<svg width="60" height="60" viewBox="0 0 60 60" fill="none" xmlns="http://www.w3.org/2000/svg">
<rect width="60" height="60" rx="30" fill="white"/>
<path d="M30.588 8C30.3256 8 30.0548 8.01443 29.7755 8.03788C22.6216 8.6386 24.5193 16.7095 24.4092 19.3992C24.2806 21.3691 23.9014 22.9223 22.6318 24.8471C21.1336 26.7431 19.0312 29.808 18.0341 33.0028C17.5635 34.5037 17.34 36.0407 17.5482 37.4929C17.471 37.5594 17.4076 37.6424 17.362 37.7364C16.9219 38.2199 16.6003 38.8188 16.2397 39.2499C15.9028 39.6089 15.4187 39.7316 14.8905 39.9715C14.3607 40.2168 13.7767 40.4568 13.4279 41.1982C13.2756 41.5391 13.1977 41.909 13.2045 42.2842C13.2045 42.6432 13.2502 43.0058 13.2976 43.2511C13.3958 43.9709 13.4939 44.5644 13.3653 45.0009C12.9438 46.2276 12.8913 47.0665 13.1859 47.678C13.4804 48.2805 14.0915 48.5259 14.7771 48.7622C16.1483 49.123 18.0104 49.0057 19.473 49.8446C21.0405 50.6852 22.6318 51.0532 23.9014 50.6924C24.7918 50.4832 25.5434 49.8554 25.9463 48.9859C26.94 48.9805 28.0285 48.5006 29.7721 48.3834C30.9554 48.2787 32.4366 48.865 34.1345 48.7441C34.1768 48.9859 34.2411 49.1013 34.3274 49.3449L34.3325 49.3503C34.9944 50.7538 36.2166 51.3923 37.5218 51.2823C38.827 51.1741 40.2168 50.3154 41.3425 48.9263C42.4106 47.5463 44.1915 46.9709 45.368 46.215C45.9571 45.856 46.4328 45.3689 46.4666 44.6762C46.5056 43.9546 46.1281 43.2132 45.258 42.194V42.019L45.2529 42.0136C44.9651 41.6528 44.8297 41.0485 44.6807 40.3431C44.5368 39.6197 44.3726 38.9252 43.8478 38.4562H43.8428C43.7429 38.3588 43.6346 38.3353 43.5245 38.2126C43.4299 38.1422 43.3182 38.1022 43.2029 38.0972C43.9325 35.7917 43.6498 33.4971 42.91 31.4334C42.0078 28.8898 40.4301 26.6745 39.2282 25.1502C37.8807 23.3372 36.5603 21.6199 36.5874 19.0745C36.6314 15.1924 36.9869 8.01082 30.588 8V8ZM31.4835 14.1425H31.5055C31.8661 14.1425 32.1759 14.2543 32.4941 14.4997C32.8158 14.7432 33.0528 15.0986 33.2356 15.4612C33.4133 15.9284 33.503 16.2892 33.5166 16.7672C33.5166 16.7311 33.5267 16.6951 33.5267 16.659V16.8484C33.523 16.8361 33.5207 16.8234 33.52 16.8105L33.5132 16.7672C33.5098 17.2056 33.4234 17.6388 33.2593 18.0408C33.1802 18.267 33.0574 18.4729 32.8987 18.6451C32.8507 18.6163 32.801 18.591 32.7497 18.5694C32.5737 18.4882 32.4146 18.4539 32.269 18.3294C32.1483 18.2782 32.0237 18.2384 31.8966 18.2104C31.9812 18.1022 32.1437 17.9705 32.2063 17.8532C32.2961 17.6223 32.3452 17.377 32.3553 17.128V17.0919C32.3591 16.8469 32.3242 16.603 32.2521 16.3704C32.1759 16.1286 32.0811 16.0096 31.9423 15.7696C31.8001 15.6506 31.6596 15.5315 31.4903 15.5315H31.4632C31.3058 15.5315 31.1653 15.5856 31.0197 15.7696C30.8589 15.9367 30.7397 16.1438 30.6727 16.3722C30.5827 16.6014 30.5312 16.8456 30.5203 17.0937V17.128C30.5237 17.2886 30.5338 17.4509 30.5542 17.6097C30.2274 17.4888 29.8127 17.3661 29.5266 17.2453C29.5095 17.1258 29.4994 17.0053 29.4961 16.8845V16.8484C29.4829 16.3722 29.5696 15.8988 29.7501 15.463C29.8889 15.0661 30.1428 14.7306 30.478 14.5015C30.7674 14.2677 31.1204 14.1411 31.4835 14.1407V14.1425ZM26.4694 14.2489H26.5303C26.7707 14.2489 26.9874 14.3355 27.2058 14.4924C27.4529 14.7251 27.6527 15.012 27.7881 15.3313C27.9404 15.6903 28.0251 16.0529 28.0471 16.5345V16.5417C28.0589 16.7835 28.0573 16.9025 28.0437 17.0216V17.1659C27.9929 17.1785 27.9489 17.1984 27.9032 17.2092C27.6459 17.3084 27.4394 17.4527 27.2379 17.57C27.2582 17.4076 27.2599 17.2453 27.243 17.0883V17.0613C27.2227 16.8213 27.1753 16.7005 27.1042 16.4606C27.0514 16.2767 26.9546 16.1107 26.8232 15.9789C26.7815 15.9385 26.7325 15.9074 26.6793 15.8876C26.6261 15.8677 26.5697 15.8595 26.5134 15.8634H26.4779C26.3577 15.8743 26.2578 15.9356 26.163 16.1016C26.055 16.2412 25.9848 16.4096 25.9599 16.5886C25.9141 16.7831 25.9009 16.9846 25.9209 17.1839V17.211C25.9412 17.4545 25.9836 17.5718 26.0563 17.8135C26.1342 18.0552 26.2222 18.1743 26.3374 18.297C26.3543 18.3132 26.3712 18.3294 26.3949 18.3403C26.2764 18.4431 26.1968 18.4666 26.097 18.5856C26.0336 18.6453 25.9575 18.6874 25.8752 18.7083C25.6992 18.4825 25.5434 18.2397 25.4097 17.9831C25.2496 17.604 25.1605 17.1953 25.1473 16.7799C25.1193 16.3726 25.1652 15.9635 25.2827 15.5748C25.376 15.2204 25.5393 14.8913 25.7618 14.6097C25.9785 14.3698 26.2019 14.2489 26.4694 14.2489V14.2489ZM28.7886 17.3265C29.3506 17.3265 30.0294 17.4437 30.847 18.0462C31.343 18.407 31.7324 18.5315 32.6279 18.8905H32.6329C33.0646 19.1358 33.3185 19.3703 33.4421 19.6103V19.3739C33.5029 19.5051 33.5367 19.6486 33.5414 19.7948C33.546 19.941 33.5214 20.0865 33.4692 20.2218C33.261 20.781 32.5957 21.3817 31.6697 21.7407V21.7443C31.216 21.9879 30.8216 22.3451 30.3578 22.5832C29.8906 22.8267 29.3624 23.1099 28.6447 23.0648C28.3868 23.0791 28.1289 23.038 27.8863 22.944C27.6988 22.8353 27.5168 22.716 27.3412 22.5868C27.0111 22.3433 26.7267 21.9879 26.3052 21.7479V21.7389H26.2967C25.6196 21.2952 25.2539 20.8153 25.1355 20.4581C25.017 19.9747 25.127 19.6103 25.4622 19.3757C25.8414 19.1322 26.1054 18.8869 26.2798 18.7696C26.4558 18.6361 26.5219 18.5856 26.5777 18.5333H26.5811V18.5279C26.8672 18.1635 27.3192 17.68 28.0014 17.4437C28.2367 17.3788 28.4991 17.3265 28.7902 17.3265H28.7886ZM33.5284 21.1905C34.1345 23.7467 35.553 27.4593 36.4655 29.2596C36.9496 30.2229 37.9128 32.2524 38.331 34.7148C38.595 34.7058 38.8896 34.7473 39.1994 34.8302C40.2929 31.8158 38.2751 28.5759 37.3559 27.6757C36.9835 27.315 36.9632 27.0714 37.1477 27.0714C38.1464 28.0347 39.4584 29.9072 39.9341 32.0449C40.1541 33.01 40.2049 34.0365 39.9696 35.0575C40.083 35.108 40.1981 35.1658 40.3166 35.1784C42.0636 36.1417 42.7086 36.8705 42.3988 37.9511V37.8735C42.2972 37.8681 42.1957 37.8735 42.0941 37.8735H42.067C42.3226 37.0311 41.7589 36.3852 40.2642 35.6655C38.7152 34.9439 37.4778 35.0593 37.2679 36.5043C37.2543 36.5819 37.2459 36.6234 37.2374 36.7478C37.1223 36.7893 37.0021 36.8434 36.8836 36.8633C36.1557 37.3468 35.763 38.0701 35.5412 39.0046C35.3211 39.9661 35.2534 41.09 35.1942 42.3762V42.3816C35.1603 42.9841 34.9064 43.8933 34.6542 44.8169C32.1149 46.7508 28.5939 47.5914 25.601 45.4195C25.4132 45.0696 25.1845 44.7465 24.9205 44.4579C24.7943 44.2341 24.6374 44.0316 24.4549 43.8572C24.763 43.8572 25.0271 43.8031 25.2421 43.7364C25.4855 43.616 25.676 43.4002 25.7736 43.1338C25.9565 42.6522 25.7736 41.8765 25.1896 41.0358C24.6056 40.1934 23.6136 39.2409 22.1629 38.292C21.0964 37.5704 20.4937 36.7226 20.2161 35.7737C19.9368 34.8104 19.9741 33.8164 20.1907 32.8062C20.6055 30.876 21.6686 28.9998 22.3474 27.8219C22.5285 27.7046 22.41 28.0654 21.6567 29.5789C20.9864 30.9337 19.7269 34.0834 21.4502 36.5314C21.5153 34.7453 21.8865 32.9869 22.5454 31.3432C23.5002 29.0377 25.496 25.0221 25.6535 21.8399C25.7347 21.9049 26.0208 22.0835 26.1427 22.2043C26.5117 22.4443 26.7859 22.8051 27.1414 23.0432C27.4969 23.4058 27.9489 23.6475 28.6243 23.6475C28.6904 23.6529 28.7513 23.6583 28.8106 23.6583C29.508 23.6583 30.0463 23.4166 30.4983 23.1749C30.9892 22.9331 31.3786 22.5724 31.751 22.4533H31.7594C32.55 22.2098 33.1729 21.7281 33.5267 21.1905H33.5284ZM37.2272 37.3504C37.2899 38.4327 37.8079 39.5963 38.7203 39.8344C39.7157 40.0761 41.1478 39.2337 41.7521 38.4544L42.1093 38.4363C42.6426 38.4237 43.0861 38.4544 43.5431 38.9198L43.5482 38.9252C43.9003 39.2842 44.0645 39.8813 44.2101 40.5055C44.354 41.2271 44.4708 41.9126 44.9025 42.4285C45.7252 43.3792 45.9943 44.0629 45.9791 44.485L45.9842 44.4724V44.5048L45.9791 44.4832C45.9537 44.9558 45.6659 45.1976 45.1361 45.5566C44.0696 46.2799 42.1804 46.841 40.9768 48.3888C39.9307 49.7183 38.6577 50.4453 37.5303 50.5373C36.4062 50.6329 35.4362 50.1765 34.8658 48.9173L34.8573 48.9119C34.5018 48.1903 34.6542 47.0629 34.9521 45.8632C35.25 44.6582 35.6766 43.4387 35.7359 42.4411C35.7985 41.1531 35.8645 40.0328 36.066 39.1687C36.2691 38.3299 36.5874 37.731 37.1511 37.3937L37.2272 37.354V37.3504ZM18.9211 37.4388H18.938C19.0278 37.4388 19.1158 37.4478 19.2038 37.464C19.8403 37.5632 20.399 38.0647 20.9356 38.8206L22.476 41.8224L22.4811 41.8278C22.8925 42.7893 23.7575 43.7472 24.4939 44.7809C25.2286 45.8596 25.7973 46.8211 25.7279 47.6131V47.6239C25.6314 48.966 24.9154 49.6948 23.8235 49.9582C22.7317 50.2017 21.2504 49.9618 19.7692 49.1212C18.1306 48.1542 16.1838 48.2751 14.9328 48.0352C14.3082 47.9161 13.9002 47.6744 13.7089 47.3136C13.5227 46.9528 13.5176 46.2276 13.9172 45.0947V45.0875L13.9205 45.0821C14.1186 44.4796 13.9713 43.7255 13.8748 43.0653C13.7817 42.3419 13.7343 41.7845 13.9476 41.3696C14.2185 40.767 14.618 40.648 15.1157 40.4081C15.6134 40.1645 16.1991 40.0437 16.6646 39.5602H16.668V39.5566C17.1013 39.0731 17.4213 38.4724 17.7988 38.0449C18.1204 37.6823 18.4421 37.4388 18.9211 37.4388V37.4388ZM31.04 21.0697C30.3036 21.4323 29.4403 22.0348 28.5211 22.0348C27.6036 22.0348 26.8791 21.5531 26.3543 21.1941C26.0936 20.9524 25.8803 20.7107 25.7229 20.5898C25.4452 20.3481 25.4791 19.9891 25.5976 19.9891C25.7821 20.018 25.816 20.2308 25.9345 20.3499C26.097 20.4689 26.2984 20.7107 26.5439 20.9506C27.0382 21.3114 27.695 21.793 28.5194 21.793C29.3404 21.793 30.3019 21.3114 30.886 20.9524C31.2161 20.7089 31.6393 20.3499 31.9829 20.11C32.247 19.8646 32.2351 19.6283 32.4552 19.6283C32.6719 19.6572 32.5127 19.87 32.2063 20.2272C31.8309 20.5298 31.441 20.8116 31.0383 21.0715L31.04 21.0697ZM29.2084 18.214V18.1743C29.1982 18.1382 29.2304 18.0985 29.2575 18.0841C29.3827 18.0065 29.5622 18.0354 29.6976 18.0913C29.8042 18.0913 29.9684 18.2122 29.9515 18.3349C29.9414 18.4233 29.8076 18.4539 29.723 18.4539C29.6299 18.4539 29.5672 18.3764 29.4843 18.3313C29.3963 18.2988 29.2371 18.3168 29.2084 18.214ZM28.2756 18.214C28.2418 18.3186 28.0843 18.3024 27.9946 18.3331C27.9151 18.3782 27.849 18.4557 27.7576 18.4557C27.673 18.4557 27.5376 18.4196 27.5274 18.3331C27.5105 18.214 27.6764 18.0931 27.7813 18.0931C27.9167 18.0372 28.0928 18.0083 28.2198 18.0841C28.2519 18.1003 28.2807 18.1382 28.2705 18.1743V18.2104H28.2756V18.214Z" fill="black"/>
</svg>
