<svg width="60" height="60" viewBox="0 0 60 60" fill="none" xmlns="http://www.w3.org/2000/svg">
<rect width="60" height="60" rx="30" fill="white"/>
<path d="M49.7242 29.5055L48.0453 28.4662C48.0314 28.3029 48.0157 28.1398 47.9982 27.9769L49.4408 26.632C49.512 26.5645 49.5649 26.48 49.5946 26.3865C49.6242 26.293 49.6297 26.1935 49.6105 26.0973C49.5913 26.0011 49.548 25.9113 49.4847 25.8363C49.4214 25.7614 49.3402 25.7037 49.2485 25.6687L47.4042 24.9787C47.3586 24.8192 47.3103 24.6605 47.2592 24.5027L48.4098 22.9049C48.4675 22.825 48.5038 22.7318 48.5153 22.6339C48.5267 22.5361 48.5129 22.437 48.4752 22.346C48.4375 22.255 48.3771 22.1752 48.2998 22.1141C48.2226 22.0531 48.1309 22.0128 48.0337 21.9972L46.0898 21.6815C46.014 21.5346 45.9358 21.3889 45.8553 21.2445L46.672 19.451C46.7132 19.3616 46.7306 19.2631 46.7226 19.165C46.7146 19.0668 46.6815 18.9724 46.6263 18.8909C46.5714 18.8091 46.4966 18.7427 46.409 18.6978C46.3214 18.6529 46.2238 18.631 46.1253 18.6342L44.1512 18.7035C44.0499 18.5753 43.9458 18.4492 43.839 18.3255L44.2928 16.4039C44.3153 16.308 44.3129 16.2081 44.2859 16.1134C44.2589 16.0188 44.2082 15.9326 44.1387 15.863C44.0691 15.7934 43.9829 15.7426 43.8883 15.7156C43.7936 15.6886 43.6937 15.6862 43.5978 15.7085L41.6758 16.1625C41.5504 16.0571 41.4238 15.9531 41.2962 15.8504L41.3653 13.8762C41.3701 13.7774 41.3492 13.6791 41.3047 13.5908C41.2602 13.5025 41.1936 13.4272 41.1114 13.3722C41.0293 13.3172 40.9343 13.2843 40.8357 13.2769C40.7371 13.2694 40.6382 13.2875 40.5487 13.3295L38.7553 14.1479C38.61 14.0685 38.465 13.9892 38.3182 13.9134L38.001 11.9679C37.9845 11.8711 37.9438 11.7801 37.8825 11.7034C37.8213 11.6266 37.7417 11.5667 37.651 11.5291C37.5603 11.4915 37.4616 11.4775 37.364 11.4885C37.2665 11.4994 37.1733 11.5349 37.0932 11.5917L35.4937 12.7425C35.3359 12.692 35.1773 12.6442 35.0178 12.5992L34.3278 10.7549C34.2928 10.6632 34.2351 10.5819 34.1602 10.5186C34.0852 10.4552 33.9954 10.4119 33.8992 10.3927C33.803 10.3735 33.7034 10.379 33.6099 10.4087C33.5164 10.4384 33.4319 10.4913 33.3643 10.5625L32.0195 12.0069C31.8567 11.9885 31.6935 11.9727 31.5302 11.9595L30.4908 10.2805C30.4392 10.1968 30.3669 10.1277 30.281 10.0797C30.195 10.0318 30.0983 10.0066 29.9998 10.0066C29.9014 10.0066 29.8047 10.0318 29.7187 10.0797C29.6328 10.1277 29.5605 10.1968 29.5088 10.2805L28.4695 11.9594C28.3062 11.9734 28.1431 11.9892 27.9802 12.0067L26.6337 10.5624C26.5666 10.4903 26.4822 10.4366 26.3885 10.4063C26.2948 10.3761 26.1949 10.3703 26.0983 10.3896C26.0018 10.4089 25.9117 10.4526 25.8368 10.5165C25.7619 10.5804 25.7046 10.6624 25.6703 10.7547L24.9802 12.5989C24.8198 12.6445 24.663 12.6934 24.5043 12.7422L22.9065 11.5917C22.8264 11.5349 22.7332 11.4994 22.6357 11.4885C22.5381 11.4776 22.4394 11.4915 22.3487 11.5291C22.258 11.5667 22.1783 11.6267 22.1171 11.7035C22.0559 11.7802 22.0151 11.8712 21.9987 11.968L21.6815 13.9134C21.5346 13.9892 21.3889 14.0674 21.2445 14.1479L19.4508 13.3295C19.3613 13.2885 19.2627 13.2712 19.1644 13.2791C19.0662 13.287 18.9717 13.3199 18.8898 13.3747C18.8079 13.4295 18.7414 13.5044 18.6967 13.5922C18.6519 13.68 18.6304 13.7777 18.6342 13.8762L18.7035 15.8504C18.575 15.9521 18.4485 16.0561 18.3238 16.1625L16.402 15.7084C16.3062 15.686 16.2062 15.6884 16.1116 15.7154C16.0169 15.7424 15.9307 15.7931 15.8612 15.8627C15.7916 15.9323 15.7409 16.0184 15.7139 16.1131C15.6869 16.2077 15.6845 16.3077 15.7068 16.4035L16.159 18.3254C16.0543 18.4504 15.9498 18.5769 15.8485 18.7034L13.8743 18.6342C13.7759 18.6304 13.6781 18.652 13.5903 18.6967C13.5025 18.7415 13.4277 18.8079 13.3729 18.8898C13.3181 18.9717 13.2851 19.0662 13.2772 19.1645C13.2693 19.2627 13.2867 19.3613 13.3277 19.4509L14.146 21.2444C14.0655 21.3887 13.9873 21.5344 13.9115 21.6814L11.9678 21.997C11.8711 22.0135 11.7801 22.0542 11.7034 22.1154C11.6266 22.1766 11.5667 22.2563 11.5291 22.347C11.4915 22.4376 11.4775 22.5363 11.4884 22.6339C11.4993 22.7314 11.5348 22.8246 11.5915 22.9047L12.7422 24.5025C12.6921 24.6606 12.6437 24.8192 12.5972 24.9784L10.753 25.6684C10.6613 25.7034 10.58 25.761 10.5167 25.836C10.4533 25.9109 10.41 26.0007 10.3908 26.097C10.3715 26.1932 10.377 26.2927 10.4067 26.3863C10.4364 26.4798 10.4893 26.5643 10.5605 26.6319L12.0032 27.9769C11.9849 28.1397 11.9691 28.3027 11.956 28.466L10.2772 29.5054C10.1926 29.5564 10.1227 29.6285 10.0742 29.7145C10.0257 29.8005 10.0002 29.8976 10.0002 29.9964C10.0002 30.0951 10.0257 30.1922 10.0742 30.2782C10.1227 30.3643 10.1926 30.4363 10.2772 30.4874L11.956 31.5267C11.9693 31.6904 11.9863 31.854 12.0032 32.016L10.5605 33.3625C10.4884 33.4296 10.4347 33.514 10.4045 33.6078C10.3743 33.7015 10.3685 33.8014 10.3878 33.8979C10.4071 33.9945 10.4508 34.0845 10.5147 34.1594C10.5787 34.2343 10.6607 34.2916 10.753 34.3259L12.5972 35.016C12.6427 35.1764 12.6917 35.335 12.7422 35.4919L11.5915 37.0897C11.5333 37.1695 11.4966 37.263 11.485 37.3611C11.4733 37.4592 11.4872 37.5587 11.5252 37.6499C11.5632 37.7411 11.624 37.821 11.7018 37.8819C11.7796 37.9428 11.8718 37.9826 11.9695 37.9975L13.9132 38.313C13.9892 38.4597 14.0668 38.6049 14.1478 38.75L13.3295 40.5437C13.2885 40.6333 13.2711 40.7319 13.2791 40.8301C13.287 40.9283 13.3199 41.0229 13.3747 41.1047C13.4295 41.1866 13.5044 41.2531 13.5922 41.2978C13.6799 41.3426 13.7777 41.3641 13.8762 41.3604L15.8485 41.2912C15.9515 41.4194 16.0543 41.5459 16.1607 41.6707L15.7085 43.5942C15.686 43.69 15.6883 43.7899 15.7153 43.8846C15.7423 43.9792 15.793 44.0653 15.8627 44.1348C15.9323 44.2043 16.0186 44.2549 16.1133 44.2816C16.208 44.3084 16.308 44.3105 16.4037 44.2877L18.3253 43.8355C18.4503 43.9419 18.577 44.0447 18.7052 44.146L18.636 46.1202C18.6316 46.2188 18.6527 46.3169 18.6973 46.405C18.742 46.4931 18.8085 46.5682 18.8907 46.623C18.9728 46.6778 19.0677 46.7105 19.1661 46.7179C19.2646 46.7253 19.3633 46.7071 19.4527 46.6652L21.2462 45.8485C21.3912 45.9295 21.5363 46.007 21.6832 46.083L22.0003 48.0267C22.0166 48.1236 22.0571 48.2148 22.1183 48.2918C22.1794 48.3688 22.259 48.4289 22.3497 48.4667C22.4405 48.5045 22.5393 48.5186 22.637 48.5078C22.7346 48.4969 22.828 48.4615 22.9082 48.4047L24.506 47.254C24.6638 47.3049 24.8225 47.3532 24.9818 47.399L25.6718 49.2434C25.7057 49.336 25.7629 49.4184 25.8378 49.4826C25.9127 49.5469 26.0028 49.5907 26.0996 49.6101C26.1964 49.6294 26.2965 49.6235 26.3903 49.5929C26.4841 49.5624 26.5685 49.5083 26.6353 49.4357L27.9818 47.993C28.1438 48.0115 28.3075 48.0269 28.4712 48.042L29.5105 49.7209C29.5625 49.8042 29.6349 49.873 29.7208 49.9206C29.8067 49.9683 29.9033 49.9933 30.0015 49.9933C30.0998 49.9933 30.1964 49.9683 30.2823 49.9206C30.3682 49.873 30.4405 49.8042 30.4925 49.7209L31.5318 48.042C31.6955 48.0269 31.8592 48.0115 32.0212 47.993L33.366 49.4357C33.4335 49.5069 33.518 49.5597 33.6115 49.5894C33.705 49.6191 33.8045 49.6246 33.9008 49.6054C33.997 49.5862 34.0867 49.5429 34.1617 49.4796C34.2366 49.4163 34.2943 49.335 34.3293 49.2434L35.0195 47.399C35.179 47.3535 35.3376 47.3052 35.4953 47.254L37.0932 48.4047C37.173 48.4629 37.2665 48.4996 37.3646 48.5112C37.4627 48.5229 37.5622 48.509 37.6534 48.471C37.7446 48.4331 37.8245 48.3722 37.8854 48.2944C37.9463 48.2166 37.9861 48.1244 38.001 48.0267L38.3182 46.083C38.4648 46.007 38.61 45.9279 38.7552 45.8485L40.5488 46.6652C40.6383 46.7056 40.7367 46.7226 40.8345 46.7146C40.9324 46.7065 41.0266 46.6737 41.1083 46.6192C41.19 46.5647 41.2565 46.4903 41.3015 46.403C41.3465 46.3157 41.3685 46.2184 41.3655 46.1202L41.2963 44.146C41.4245 44.0453 41.5505 43.9418 41.6742 43.8355L43.596 44.2877C43.6917 44.31 43.7914 44.3075 43.8859 44.2806C43.9803 44.2537 44.0663 44.2032 44.1359 44.1338C44.2054 44.0645 44.2562 43.9786 44.2833 43.8842C44.3105 43.7898 44.3132 43.6901 44.2912 43.5944L43.839 41.6707C43.9437 41.5459 44.0482 41.4194 44.1495 41.291L46.1237 41.3602C46.2225 41.3649 46.3208 41.344 46.4091 41.2995C46.4974 41.255 46.5727 41.1885 46.6277 41.1063C46.6827 41.0241 46.7156 40.9291 46.723 40.8305C46.7305 40.7319 46.7123 40.633 46.6703 40.5435L45.8537 38.7502C45.9328 38.6049 46.0122 38.4599 46.0882 38.313L48.0318 37.9975C48.1286 37.9811 48.2197 37.9403 48.2964 37.8791C48.3732 37.8179 48.4331 37.7382 48.4707 37.6475C48.5083 37.5569 48.5223 37.4581 48.5114 37.3606C48.5004 37.263 48.4649 37.1698 48.4082 37.0897L47.2575 35.4919L47.4025 35.016L49.2468 34.326C49.3392 34.2918 49.4212 34.2345 49.4852 34.1595C49.5491 34.0846 49.5928 33.9946 49.6121 33.898C49.6313 33.8014 49.6256 33.7015 49.5953 33.6078C49.565 33.514 49.5113 33.4296 49.4392 33.3625L47.9965 32.016C48.0133 31.854 48.0302 31.6904 48.0437 31.5267L49.7225 30.4874C49.807 30.4363 49.877 30.3643 49.9255 30.2782C49.974 30.1922 49.9995 30.0951 49.9995 29.9964C49.9995 29.8976 49.974 29.8005 49.9255 29.7145C49.877 29.6285 49.807 29.5564 49.7225 29.5054L49.7242 29.5055ZM38.4887 43.4307C38.1816 43.3632 37.9138 43.177 37.7436 42.9126C37.5735 42.6483 37.5149 42.3273 37.5807 42.0199C37.6464 41.7125 37.8312 41.4436 38.0946 41.272C38.358 41.1004 38.6786 41.04 38.9863 41.104C39.1413 41.1346 39.2885 41.1958 39.4196 41.2839C39.5506 41.372 39.6629 41.4853 39.7497 41.6172C39.8365 41.7491 39.8962 41.897 39.9253 42.0522C39.9544 42.2074 39.9523 42.3668 39.9192 42.5212C39.886 42.6756 39.8225 42.8219 39.7322 42.9515C39.642 43.0811 39.5269 43.1914 39.3935 43.276C39.2602 43.3607 39.1114 43.418 38.9557 43.4445C38.8001 43.4711 38.6407 43.4664 38.4868 43.4307H38.4887ZM37.9183 39.5737C37.7792 39.5437 37.6355 39.5415 37.4955 39.5672C37.3555 39.5929 37.2219 39.646 37.1024 39.7234C36.983 39.8008 36.88 39.9011 36.7993 40.0184C36.7187 40.1357 36.662 40.2678 36.6325 40.407L36.037 43.1879C34.1978 44.0229 32.1562 44.487 30.0048 44.487C27.8776 44.4901 25.7754 44.027 23.8463 43.1304L23.2507 40.3497C23.2212 40.2105 23.1645 40.0785 23.0839 39.9613C23.0032 39.844 22.9002 39.7439 22.7807 39.6666C22.6612 39.5894 22.5277 39.5364 22.3877 39.5109C22.2477 39.4854 22.1041 39.4878 21.965 39.518L19.51 40.0444C19.0538 39.5746 18.6299 39.0746 18.2412 38.5477H30.1872C30.3222 38.5477 30.4132 38.5242 30.4132 38.401V34.1744C30.4132 34.051 30.3238 34.0275 30.1872 34.0275H26.6928V31.348H30.4723C30.8165 31.348 32.3165 31.4459 32.7957 33.3627C32.9458 33.9515 33.2748 35.87 33.501 36.4842C33.7253 37.1725 34.6398 38.5477 35.6152 38.5477H41.5678C41.6403 38.5467 41.7126 38.5394 41.7838 38.5259C41.3711 39.0866 40.9189 39.6171 40.4307 40.1135L37.9183 39.5737ZM21.3947 43.3734C21.2408 43.409 21.0815 43.4137 20.9258 43.3872C20.7701 43.3606 20.6213 43.3034 20.488 43.2187C20.3547 43.1341 20.2395 43.0237 20.1493 42.8941C20.0591 42.7646 19.9955 42.6183 19.9624 42.4639C19.9292 42.3095 19.9271 42.1501 19.9562 41.9948C19.9853 41.8396 20.045 41.6918 20.1319 41.5599C20.2187 41.428 20.3309 41.3146 20.4619 41.2265C20.593 41.1384 20.7403 41.0773 20.8952 41.0467C21.2015 40.9862 21.5193 41.0485 21.7801 41.2201C22.0409 41.3918 22.2238 41.6591 22.2893 41.9643C22.3549 42.2696 22.2978 42.5884 22.1305 42.852C21.9631 43.1156 21.6988 43.3028 21.3947 43.3734ZM16.8627 24.9954C16.9314 25.1388 16.9707 25.2946 16.9781 25.4536C16.9856 25.6125 16.9611 25.7713 16.9061 25.9206C16.8511 26.0699 16.7667 26.2066 16.6579 26.3227C16.5491 26.4388 16.4181 26.5319 16.2727 26.5964C16.1273 26.661 15.9705 26.6958 15.8114 26.6986C15.6523 26.7015 15.4943 26.6724 15.3466 26.6131C15.199 26.5538 15.0648 26.4655 14.9519 26.3534C14.839 26.2413 14.7497 26.1077 14.6893 25.9605C14.5723 25.6742 14.5714 25.3535 14.6869 25.0665C14.8023 24.7796 15.025 24.5488 15.3077 24.4233C15.5904 24.2978 15.9109 24.2873 16.2012 24.3941C16.4915 24.501 16.7288 24.7167 16.8627 24.9955V24.9954ZM15.4707 28.2975L18.0285 27.1602C18.1586 27.1024 18.2761 27.0196 18.3742 26.9164C18.4722 26.8132 18.549 26.6917 18.6001 26.5588C18.6512 26.4259 18.6755 26.2842 18.6718 26.1419C18.6681 25.9996 18.6364 25.8594 18.5785 25.7294L18.0522 24.5382H20.1242V33.8757H15.9447C15.4293 32.0635 15.2689 30.1688 15.4723 28.2957L15.4707 28.2975ZM26.6945 27.3914V24.6394H31.628C31.883 24.6394 33.4267 24.9347 33.4267 26.0889C33.4267 27.0472 32.2422 27.3914 31.2687 27.3914H26.6945ZM44.6235 29.8684C44.6235 30.2329 44.6102 30.5955 44.583 30.9534H43.083C42.933 30.9534 42.8722 31.051 42.8722 31.1995V31.8879C42.8722 33.5095 41.9577 33.8622 41.1562 33.9515C40.3935 34.0377 39.5482 33.6327 39.4437 33.1654C38.993 30.6344 38.244 30.0927 37.0595 29.1597C38.529 28.2265 40.0578 26.8497 40.0578 25.0072C40.0578 23.0179 38.6928 21.7642 37.763 21.1484C36.4588 20.2879 35.0145 20.1159 34.6247 20.1159H19.1135C21.2572 17.7188 24.1319 16.0961 27.2918 15.4994L29.1208 17.4177C29.2188 17.5208 29.3362 17.6035 29.4663 17.6611C29.5963 17.7187 29.7364 17.7501 29.8786 17.7534C30.0208 17.7567 30.1623 17.7319 30.2949 17.6803C30.4274 17.6288 30.5485 17.5516 30.6512 17.4532L32.6962 15.496C34.7813 15.8871 36.7564 16.7271 38.4845 17.9578C40.2125 19.1885 41.6522 20.7804 42.7035 22.623L41.303 25.7867C41.187 26.0495 41.1797 26.3475 41.2827 26.6156C41.3858 26.8837 41.5908 27.1001 41.853 27.2175L44.5493 28.4155C44.5965 28.8947 44.6202 29.3772 44.6202 29.8684H44.6235ZM29.1225 13.8695C29.3505 13.652 29.6556 13.5341 29.9706 13.5415C30.1265 13.5452 30.2803 13.5795 30.4229 13.6426C30.5656 13.7057 30.6945 13.7963 30.8022 13.9092C30.9099 14.0221 30.9943 14.1551 31.0505 14.3006C31.1068 14.4461 31.1339 14.6013 31.1302 14.7572C31.1265 14.9132 31.0922 15.0669 31.0291 15.2096C30.966 15.3523 30.8754 15.4812 30.7625 15.5889C30.5314 15.7883 30.2325 15.8913 29.9276 15.8766C29.6227 15.8618 29.3352 15.7304 29.1245 15.5095C28.9138 15.2886 28.7961 14.9952 28.7957 14.6899C28.7954 14.3846 28.9124 14.0909 29.1225 13.8695V13.8695ZM43.0207 25.0529C43.0836 24.9102 43.174 24.7813 43.2869 24.6737C43.3997 24.566 43.5326 24.4817 43.6781 24.4256C43.8236 24.3695 43.9787 24.3426 44.1346 24.3466C44.2905 24.3505 44.4441 24.3852 44.5865 24.4487C44.8018 24.5437 44.9841 24.7005 45.1103 24.8991C45.2365 25.0978 45.301 25.3295 45.2955 25.5648C45.29 25.8001 45.2148 26.0284 45.0794 26.221C44.9441 26.4135 44.7547 26.5616 44.5351 26.6465C44.3156 26.7313 44.0758 26.7491 43.8461 26.6977C43.6165 26.6462 43.4072 26.5277 43.2449 26.3573C43.0826 26.1868 42.9745 25.9721 42.9343 25.7402C42.8941 25.5083 42.9236 25.2697 43.019 25.0545L43.0207 25.0529Z" fill="black"/>
</svg>
