<svg width="60" height="60" viewBox="0 0 60 60" fill="none" xmlns="http://www.w3.org/2000/svg">
<rect width="60" height="60" rx="30" fill="white"/>
<g clip-path="url(#clip0)">
<path d="M22.4383 35.9149L21.0117 36.0166C21.0117 36.2999 21.025 36.5316 21.025 36.6999C21.0633 38.4716 22.065 38.8449 22.9017 38.8449C23.0167 38.8449 23.0933 38.8316 23.0933 38.8316H23.12L25.4967 38.5999C25.5867 38.3166 25.6 38.1116 25.6 38.1116C25.6 38.1116 25.2783 23.1399 25.2 21.2516C25.1921 20.8875 25.0862 20.5322 24.8933 20.2233C24.1429 20.1688 23.3929 20.1088 22.6433 20.0433L22.3733 20.0299C21.795 20.0299 21.3583 20.1849 21.0767 20.4799C20.6517 20.9299 20.69 21.6249 20.69 21.6249V21.6499C20.69 21.6749 20.7033 22.0733 20.7167 22.7166C21.8733 22.7816 22.7217 22.8333 22.7217 22.8333C22.7217 22.8333 24.045 23.1149 24.1083 24.4766C24.1733 25.9549 24.16 34.2699 24.16 34.2699C24.16 34.2699 24.315 35.6199 22.4383 35.9149ZM17.8767 36.2366L15.4867 36.4149C15.4867 36.4149 13.52 36.6849 13.4683 34.5266C13.4433 32.9333 13.2367 23.9249 13.2367 23.9249C13.2367 23.9249 13.095 22.2533 15.1267 22.3949C15.73 22.4333 16.6433 22.4849 17.6183 22.5499C17.5933 21.0583 17.5683 19.7616 17.555 18.7583C16.4396 18.6824 15.3256 18.5879 14.2133 18.4749C11.54 18.1816 11.7083 20.4316 11.7083 20.4316C11.7083 20.4316 12.0283 36.9699 12.0933 38.9883C12.17 41.4049 14.7667 41.0049 14.7667 41.0049L17.9783 40.6583C17.94 39.4633 17.915 37.9466 17.8767 36.2383V36.2366ZM46.4817 15.7383C46.3667 12.6416 43.6417 11.9866 43.6417 11.9866C43.6417 11.9866 34.2083 10.5599 30.085 10.0449C25.9467 9.53159 26.2033 13.5283 26.2033 13.5283C26.2033 13.5283 27.1417 42.7249 27.245 46.3366C27.3617 50.6416 31.37 49.9599 31.37 49.9599L45.5833 47.5066C48.1667 46.9916 48.295 43.7666 48.295 43.7666C48.295 43.7666 46.6233 19.1049 46.4817 15.7383ZM43.3083 40.5282L32.745 41.6199C32.745 41.6199 29.6733 42.0833 29.595 38.3566C29.545 35.6066 28.94 19.8249 28.94 19.8249C28.94 19.8249 28.735 16.9333 31.8967 17.1666C35.1217 17.4116 42.8717 17.9899 42.8717 17.9899C42.8717 17.9899 44.94 18.4783 45.03 20.8416C45.1333 23.4116 46.02 37.6766 46.02 37.6766C46.02 37.6766 46.2517 40.0283 43.3083 40.5299V40.5282ZM32.68 41.0683L36.755 40.6432C36.5617 36.4932 35.8417 20.3766 35.7383 18.0383V17.9999C34.2483 17.8833 32.835 17.7833 31.845 17.7049C31.7417 17.6916 31.6267 17.6916 31.5233 17.6916C30.8433 17.6916 30.3283 17.8716 29.995 18.2316C29.4283 18.8233 29.495 19.7483 29.495 19.7616V19.7733C29.495 19.7866 29.495 19.8766 29.5067 20.0183C31.1633 20.1599 32.41 20.2749 32.41 20.2749C32.41 20.2749 34.1967 20.6733 34.2733 22.6133C34.3517 24.7216 34.865 36.1333 34.865 36.1333C34.865 36.1333 35.07 38.0599 32.5267 38.4716L30.1617 38.7033C30.3283 40.6433 31.46 41.0683 32.4117 41.0683C32.5517 41.0683 32.6417 41.0549 32.6417 41.0549C32.6683 41.0683 32.68 41.0683 32.68 41.0683ZM26.46 39.0766L23.17 39.3849C23.17 39.3849 20.51 39.7683 20.46 36.7116C20.42 34.4499 20.15 21.6616 20.15 21.6616C20.15 21.6616 19.9717 19.2999 22.695 19.4933C23.4917 19.5433 24.635 19.6466 25.845 19.7366C25.7667 17.3083 25.7017 15.3683 25.6767 14.3533C24.0833 14.1983 22.5533 14.0433 21.4483 13.9149C17.85 13.5049 18.0683 16.6916 18.0683 16.6916C18.0683 16.6916 18.4933 40.1582 18.5833 43.0349C18.685 46.4683 22.1817 45.9149 22.1817 45.9149L26.6533 45.3483C26.5946 43.2581 26.5301 41.1681 26.46 39.0783V39.0766Z" fill="black"/>
</g>
<defs>
<clipPath id="clip0">
<rect width="40" height="40" fill="white" transform="translate(10 10)"/>
</clipPath>
</defs>
</svg>
