<svg width="60" height="60" viewBox="0 0 60 60" fill="none" xmlns="http://www.w3.org/2000/svg">
<path d="M30 0C46.5675 0 60 13.4325 60 30C60 46.5675 46.5675 60 30 60C13.4325 60 0 46.5675 0 30C0 13.4325 13.4325 0 30 0ZM24.0375 39.995C24.475 41.6075 24.4275 43.115 23.9775 44.475L23.815 44.925C23.755 45.0775 23.685 45.225 23.62 45.365C23.27 46.09 22.805 46.765 22.2325 47.39C20.4875 49.2875 18.0525 50.0075 17.0075 49.4025C15.8825 48.7475 16.4425 46.065 18.4675 43.9275C20.645 41.6325 23.7675 40.155 23.7675 40.155V40.1475L24.0375 39.995V39.995ZM48.815 12.8425C47.46 7.51 38.6225 5.7575 30.26 8.73C25.2875 10.4975 19.9 13.275 16.0275 16.8975C11.42 21.2 10.6875 24.95 10.99 26.5175C12.0575 32.045 19.6325 35.66 22.7475 38.3425V38.3575C21.83 38.8075 15.1075 42.18 13.5325 45.67C11.845 49.345 13.795 51.9725 15.07 52.3075C19.0075 53.3975 23.0575 51.4075 25.2325 48.185C27.3325 45.0325 27.1475 40.9825 26.2425 38.995C27.4825 38.6575 28.9425 38.5075 30.8175 38.735C36.07 39.335 37.12 42.635 36.8925 43.985C36.6675 45.3325 35.585 46.12 35.2075 46.345C34.8325 46.5725 34.72 46.645 34.755 46.7975C34.7925 47.0225 34.9825 47.0225 35.28 46.985C35.6925 46.91 38.02 45.86 38.1325 43.3075C38.245 40.0825 35.1675 36.485 29.695 36.5575C27.445 36.5975 26.0175 36.785 25.0075 37.1975C24.9325 37.085 24.855 37.01 24.745 36.935C21.37 33.2975 15.1075 30.7475 15.37 25.91C15.445 24.1475 16.0825 19.5 27.37 13.875C36.6325 9.26 44.0225 10.5375 45.2975 13.35C47.13 17.36 41.3575 24.825 31.72 25.91C28.045 26.3225 26.1325 24.9 25.6425 24.3725C25.12 23.81 25.045 23.7725 24.8575 23.8875C24.5575 24.0375 24.745 24.525 24.8575 24.825C25.1575 25.575 26.32 26.8875 28.3475 27.5625C30.1075 28.125 34.4225 28.46 39.5975 26.4375C45.4075 24.19 49.945 17.925 48.6325 12.675L48.815 12.8425V12.8425Z" fill="white"/>
</svg>
