<svg width="60" height="60" viewBox="0 0 60 60" fill="none" xmlns="http://www.w3.org/2000/svg">
<path d="M40.535 16.9049L40.3475 17.8824C40.0575 19.7349 40.1625 20.2649 40.9575 20.9524L41.725 21.5874L40.93 25.1324C40.455 27.2474 39.8725 29.0199 39.5025 29.6024C39.185 30.1049 38.815 30.8449 38.735 31.2424C38.6025 31.7174 38.1525 32.1949 37.465 32.6174C36.8575 32.9624 35.665 33.8874 34.82 34.6299C34.145 35.2374 33.68 35.6099 33.4275 35.7699L32.6025 36.4224C32.3375 36.8474 32.1875 37.1899 32.13 37.4499C32.0725 37.7174 32.105 37.8949 32.19 38.0249C32.2725 38.1499 32.415 38.2374 32.61 38.2924C32.8408 38.3465 33.0784 38.3659 33.315 38.3499C33.8502 38.3133 34.3799 38.2195 34.895 38.0699C35.07 38.0224 35.2075 37.9774 35.3275 37.9374C35.5125 37.7099 35.94 37.2799 36.6975 36.5324C38.7075 34.5499 39.475 33.4649 38.6825 33.7574C38.39 33.8624 38.5225 33.5974 39.025 33.0674C40.085 32.0349 40.6925 30.4749 41.9625 25.5824C42.9675 21.7199 42.9675 21.6649 43.7075 21.6649C44.055 21.6649 45.0375 21.7249 45.0375 21.7249V16.9049H42.7825H40.535ZM50.1325 24.8174C49.9725 24.8174 49.7075 25.0574 49.55 25.3224C49.26 25.7974 49.6025 26.0874 53.9675 28.8124C56.56 30.4549 58.65 31.8549 58.5975 31.9624C58.545 32.0399 56.4275 33.4174 53.89 35.0049C49.285 37.8599 49.26 37.8874 49.6825 38.4699C50.2125 39.1574 49.6825 39.3949 55.66 35.6649L60 32.8874V30.7974L55.1575 27.8074C52.54 26.1674 50.265 24.8449 50.1325 24.8174ZM9.92 25.1099C9.7875 25.1099 7.5125 26.4599 4.895 28.0724L0 31.0624V33.1524L4.8675 36.1949C7.5675 37.8599 9.8425 39.2374 9.9475 39.2374C10.0525 39.2374 10.265 38.9974 10.4775 38.7074C10.795 38.2049 10.5275 37.9924 6.0575 35.1624C1.8 32.4899 1.35 32.1199 1.775 31.8299C2.04 31.6449 4.05 30.3999 6.22 29.0524C11.1675 26.0099 10.9025 26.2199 10.505 25.5849C10.3475 25.3224 10.08 25.0849 9.9225 25.1099H9.92ZM31.63 25.1674C30.9 25.1624 29.33 26.2749 24.63 30.1124C24.4275 30.5949 24.41 30.9274 24.5025 31.1424C24.5625 31.2899 24.6725 31.3924 24.825 31.4674C24.975 31.5424 25.17 31.5874 25.385 31.6049C25.8125 31.6424 26.3175 31.5749 26.725 31.4949L27 31.4324C27.0941 31.3062 27.2177 31.2049 27.36 31.1374C27.65 30.9774 28.8675 29.8674 30.085 28.6774C32.2275 26.5074 32.73 25.5274 31.8575 25.2099C31.7859 25.1814 31.7095 25.167 31.6325 25.1674H31.63ZM37.12 26.6749C36.4775 26.6924 35.32 27.4374 33.3375 29.0199C32.3425 29.8274 31.7125 30.2624 31.375 30.3524L30.065 31.3874C29.5725 32.2874 29.5 32.8449 29.63 33.1524C29.6625 33.2283 29.7098 33.2969 29.769 33.3544C29.8282 33.4119 29.8982 33.4571 29.975 33.4874C30.166 33.5628 30.3697 33.601 30.575 33.5999C31.0657 33.5947 31.5534 33.5232 32.025 33.3874C32.2708 33.3215 32.5135 33.2447 32.7525 33.1574L32.825 33.1274L32.9575 33.0574C33.2075 32.7349 33.7825 32.1274 34.5025 31.4274C36.7775 29.2324 37.94 27.6724 37.7025 27.0899C37.595 26.8074 37.41 26.6649 37.12 26.6749V26.6749ZM31.06 29.3749C30.875 29.3949 30.46 29.7149 29.7125 30.3699C28.6325 31.3249 27.455 31.8749 27.0475 31.6299C26.9528 31.6513 26.8578 31.6713 26.7625 31.6899C26.3475 31.7724 25.83 31.8399 25.3675 31.8024C25.1496 31.7892 24.936 31.7358 24.7375 31.6449C24.5503 31.5593 24.4009 31.4081 24.3175 31.2199C24.225 30.9949 24.225 30.7149 24.33 30.3574L22.705 31.6924L19.0275 34.7349V39.6674L31.0775 30.1749C31.0752 30.071 31.0886 29.9673 31.1175 29.8674C31.21 29.5324 31.205 29.3624 31.06 29.3774V29.3749ZM36.245 30.9724C36.0625 30.9724 35.7575 31.2299 35.27 31.7474C34.6075 32.4549 33.565 33.1399 33.0125 33.2799L32.9275 33.3249C32.8368 33.3624 32.7451 33.3974 32.6525 33.4299C32.5025 33.4799 32.3075 33.5399 32.0825 33.5999C31.6325 33.7224 31.0725 33.8349 30.5725 33.8224C30.3368 33.8221 30.1033 33.7763 29.885 33.6874C29.6792 33.6026 29.5143 33.4413 29.425 33.2374C29.28 32.8899 29.3375 32.4024 29.655 31.7099L19.025 40.0824V43.0949H23.695L33.6 35.3149C33.8575 35.0299 34.245 34.6399 34.7675 34.1524C36.1675 32.8549 36.485 32.4074 36.485 31.7449C36.485 31.2299 36.4275 30.9699 36.245 30.9699V30.9724ZM38.6025 35.8474L37.755 36.6924C37.28 37.1424 36.4325 37.6974 35.8525 37.9349L35.7375 37.9849L35.73 37.9974L35.705 38.0224C35.6825 38.0399 35.6725 38.0424 35.655 38.0499C35.4235 38.1375 35.1882 38.2151 34.95 38.2824C34.4203 38.4366 33.8755 38.533 33.325 38.5699C33.0647 38.5866 32.8035 38.5638 32.55 38.5024C32.33 38.454 32.1359 38.3257 32.005 38.1424C31.885 37.9574 31.85 37.7099 31.9175 37.4049C31.9712 37.1878 32.0509 36.9779 32.155 36.7799L24.1625 43.0949H34.7925L36.0625 41.6399C37.8075 39.6049 38.6025 38.1499 38.6025 36.9049V35.8474Z" fill="white"/>
</svg>
