<svg width="60" height="60" viewBox="0 0 60 60" fill="none" xmlns="http://www.w3.org/2000/svg">
<rect width="60" height="60" rx="30" fill="white"/>
<path d="M38.7792 19.0875L38.6229 19.9021C38.3812 21.4459 38.4687 21.8875 39.1312 22.4604L39.7708 22.9896L39.1083 25.9438C38.7125 27.7063 38.2271 29.1834 37.9187 29.6688C37.6542 30.0875 37.3458 30.7042 37.2792 31.0354C37.1688 31.4313 36.7937 31.8292 36.2208 32.1813C35.7146 32.4688 34.7208 33.2396 34.0167 33.8584C33.4542 34.3646 33.0667 34.675 32.8562 34.8084L32.1687 35.3521C31.9479 35.7063 31.8229 35.9917 31.775 36.2083C31.7271 36.4313 31.7542 36.5792 31.825 36.6875C31.8937 36.7917 32.0125 36.8646 32.175 36.9104C32.3674 36.9555 32.5654 36.9717 32.7625 36.9584C33.2085 36.9279 33.6499 36.8497 34.0792 36.725C34.225 36.6854 34.3396 36.6479 34.4396 36.6146C34.5937 36.425 34.95 36.0667 35.5812 35.4438C37.2562 33.7917 37.8958 32.8875 37.2354 33.1313C36.9917 33.2188 37.1021 32.9979 37.5208 32.5563C38.4042 31.6959 38.9104 30.3959 39.9688 26.3188C40.8062 23.1 40.8062 23.0542 41.4229 23.0542C41.7125 23.0542 42.5312 23.1042 42.5312 23.1042V19.0875H40.6521H38.7792ZM46.7771 25.6813C46.6437 25.6813 46.4229 25.8813 46.2917 26.1021C46.05 26.4979 46.3354 26.7396 49.9729 29.0104C52.1333 30.3792 53.875 31.5459 53.8312 31.6354C53.7875 31.7 52.0229 32.8479 49.9083 34.1709C46.0708 36.55 46.05 36.5729 46.4021 37.0583C46.8437 37.6313 46.4021 37.8292 51.3833 34.7209L55 32.4063V30.6646L50.9646 28.1729C48.7833 26.8063 46.8875 25.7042 46.7771 25.6813ZM13.2667 25.925C13.1562 25.925 11.2604 27.05 9.07917 28.3938L5 30.8854V32.6271L9.05625 35.1625C11.3063 36.55 13.2021 37.6979 13.2896 37.6979C13.3771 37.6979 13.5542 37.4979 13.7312 37.2563C13.9958 36.8375 13.7729 36.6604 10.0479 34.3021C6.5 32.075 6.125 31.7667 6.47917 31.525C6.7 31.3709 8.375 30.3334 10.1833 29.2104C14.3062 26.675 14.0854 26.85 13.7542 26.3209C13.6229 26.1021 13.4 25.9042 13.2688 25.925H13.2667ZM31.3583 25.9729C30.75 25.9688 29.4417 26.8959 25.525 30.0938C25.3562 30.4959 25.3417 30.7729 25.4187 30.9521C25.4687 31.075 25.5604 31.1604 25.6875 31.2229C25.8125 31.2854 25.975 31.3229 26.1542 31.3375C26.5104 31.3688 26.9312 31.3125 27.2708 31.2459L27.5 31.1938C27.5784 31.0886 27.6814 31.0042 27.8 30.9479C28.0417 30.8146 29.0562 29.8896 30.0708 28.8979C31.8562 27.0896 32.275 26.2729 31.5479 26.0084C31.4883 25.9846 31.4246 25.9726 31.3604 25.9729H31.3583ZM35.9333 27.2292C35.3979 27.2438 34.4333 27.8646 32.7812 29.1834C31.9521 29.8563 31.4271 30.2188 31.1458 30.2938L30.0542 31.1563C29.6437 31.9063 29.5833 32.3709 29.6917 32.6271C29.7188 32.6903 29.7581 32.7475 29.8075 32.7954C29.8568 32.8434 29.9152 32.881 29.9792 32.9063C30.1383 32.9691 30.308 33.0009 30.4792 33C30.8881 32.9957 31.2945 32.9361 31.6875 32.8229C31.8923 32.768 32.0946 32.704 32.2937 32.6313L32.3542 32.6063L32.4646 32.5479C32.6729 32.2792 33.1521 31.7729 33.7521 31.1896C35.6479 29.3604 36.6167 28.0604 36.4187 27.575C36.3292 27.3396 36.175 27.2209 35.9333 27.2292ZM30.8833 29.4792C30.7292 29.4959 30.3833 29.7625 29.7604 30.3084C28.8604 31.1042 27.8792 31.5625 27.5396 31.3584C27.4607 31.3762 27.3815 31.3928 27.3021 31.4084C26.9562 31.4771 26.525 31.5334 26.1396 31.5021C25.958 31.4911 25.78 31.4466 25.6146 31.3709C25.4586 31.2995 25.3341 31.1735 25.2646 31.0167C25.1875 30.8292 25.1875 30.5959 25.275 30.2979L23.9208 31.4104L20.8562 33.9459V38.0563L30.8979 30.1459C30.896 30.0592 30.9072 29.9728 30.9312 29.8896C31.0083 29.6104 31.0042 29.4688 30.8833 29.4813V29.4792ZM35.2042 30.8104C35.0521 30.8104 34.7979 31.025 34.3917 31.4563C33.8396 32.0459 32.9708 32.6167 32.5104 32.7334L32.4396 32.7709C32.364 32.8021 32.2876 32.8312 32.2104 32.8584C32.0854 32.9 31.9229 32.95 31.7354 33C31.3604 33.1021 30.8937 33.1959 30.4771 33.1854C30.2806 33.1852 30.0861 33.147 29.9042 33.0729C29.7327 33.0023 29.5953 32.8678 29.5208 32.6979C29.4 32.4084 29.4479 32.0021 29.7125 31.425L20.8542 38.4021V40.9125H24.7458L33 34.4292C33.2146 34.1917 33.5375 33.8667 33.9729 33.4604C35.1396 32.3792 35.4042 32.0063 35.4042 31.4542C35.4042 31.025 35.3562 30.8084 35.2042 30.8084V30.8104ZM37.1687 34.8729L36.4625 35.5771C36.0667 35.9521 35.3604 36.4146 34.8771 36.6125L34.7812 36.6542L34.775 36.6646L34.7542 36.6854C34.7354 36.7 34.7271 36.7021 34.7125 36.7084C34.5196 36.7814 34.3235 36.846 34.125 36.9021C33.6836 37.0306 33.2295 37.1109 32.7708 37.1417C32.5539 37.1556 32.3362 37.1366 32.125 37.0854C31.9417 37.0451 31.7799 36.9382 31.6708 36.7854C31.5708 36.6313 31.5417 36.425 31.5979 36.1709C31.6427 35.9899 31.7091 35.815 31.7958 35.65L25.1354 40.9125H33.9937L35.0521 39.7C36.5062 38.0042 37.1687 36.7917 37.1687 35.7542V34.8729Z" fill="black"/>
</svg>
