<svg width="60" height="60" viewBox="0 0 60 60" fill="none" xmlns="http://www.w3.org/2000/svg">
<path d="M0 30V60H60V0H0V30ZM48.3525 27.61C49.8775 27.99 51.0375 28.6675 52.105 29.7725C52.6575 30.3625 53.4775 31.4375 53.5425 31.6975C53.5625 31.7725 50.9525 33.5225 49.3725 34.505C49.315 34.5425 49.085 34.295 48.83 33.915C48.055 32.79 47.2475 32.305 46.01 32.22C44.19 32.095 43.02 33.0475 43.03 34.6375C43.0134 35.0285 43.1014 35.4169 43.285 35.7625C43.685 36.59 44.43 37.0875 46.76 38.095C51.0575 39.945 52.895 41.1625 54.0375 42.895C55.3125 44.8275 55.6 47.915 54.7325 50.21C53.7825 52.705 51.42 54.4 48.095 54.96C47.0675 55.1425 44.63 55.115 43.525 54.915C41.115 54.485 38.83 53.295 37.42 51.7325C36.8675 51.125 35.79 49.5325 35.8575 49.42C35.885 49.38 36.1325 49.2275 36.4075 49.0675C36.6775 48.915 37.685 48.3325 38.6375 47.78L40.3625 46.78L40.725 47.315C41.23 48.085 42.3325 49.1425 43 49.495C44.915 50.505 47.5425 50.3625 48.8375 49.2C49.0979 48.9806 49.3041 48.704 49.4398 48.3917C49.5756 48.0795 49.6372 47.7401 49.62 47.4C49.62 46.705 49.5325 46.4 49.17 45.875C48.705 45.21 47.7525 44.65 45.0475 43.475C41.9525 42.1425 40.62 41.315 39.4 40C38.6385 39.1322 38.0762 38.1082 37.7525 37C37.525 36.1525 37.4675 34.0275 37.6475 33.1725C38.285 30.18 40.5425 28.0975 43.8 27.4775C44.8575 27.2775 47.315 27.3525 48.3525 27.61ZM34.2675 30.115L34.2875 32.5725H26.475V54.7625H20.95V32.5725H13.145V30.1625C13.145 28.8275 13.1725 27.7125 13.21 27.6875C13.24 27.6475 17.9925 27.6275 23.7525 27.6375L34.24 27.6675L34.2675 30.115Z" fill="white"/>
</svg>
