<svg width="60" height="60" viewBox="0 0 60 60" fill="none" xmlns="http://www.w3.org/2000/svg">
<g clip-path="url(#clip0)">
<path d="M57.8755 6.4675L45.5255 0.525C44.8276 0.188891 44.0424 0.0781141 43.2787 0.208009C42.515 0.337904 41.8106 0.702043 41.263 1.25L17.613 22.825L7.31301 15.005C6.84832 14.6525 6.27492 14.4738 5.69226 14.4998C5.1096 14.5259 4.55442 14.755 4.12301 15.1475L0.818009 18.1525C0.56046 18.3866 0.354637 18.672 0.213717 18.9902C0.0727966 19.3085 -0.000115046 19.6526 -0.000350381 20.0007C-0.000585715 20.3488 0.0718605 20.693 0.21235 21.0115C0.35284 21.3299 0.558277 21.6155 0.815509 21.85L9.74801 30L0.815509 38.15C0.558277 38.3845 0.35284 38.6701 0.21235 38.9885C0.0718605 39.307 -0.000585715 39.6512 -0.000350381 39.9993C-0.000115046 40.3474 0.0727966 40.6915 0.213717 41.0098C0.354637 41.3281 0.56046 41.6134 0.818009 41.8475L4.12551 44.85C4.55692 45.2425 5.1121 45.4716 5.69476 45.4977C6.27742 45.5237 6.85082 45.345 7.31551 44.9925L17.6155 37.1725L41.2655 58.7475C41.8125 59.2956 42.5165 59.6598 43.2798 59.7897C44.0432 59.9197 44.828 59.8088 45.5255 59.4725L57.8805 53.53C58.5162 53.2232 59.0523 52.7433 59.4273 52.1453C59.8024 51.5474 60.001 50.8558 60.0005 50.15V9.8475C60.0006 9.14117 59.8012 8.44917 59.4252 7.8512C59.0493 7.25322 58.5121 6.77358 57.8755 6.4675ZM45.0105 43.62L27.0655 30L45.0105 16.38V43.62V43.62Z" fill="white"/>
</g>
<defs>
<clipPath id="clip0">
<rect width="60" height="60" fill="white"/>
</clipPath>
</defs>
</svg>
