<svg width="500" height="500" viewBox="0 0 500 500" fill="none" xmlns="http://www.w3.org/2000/svg">
<path d="M177.993 222.471C175.737 218.685 170.84 217.443 167.055 219.7L74.1096 275.06C71.6936 276.499 70.2128 279.103 70.2128 281.915C70.2128 284.726 71.6936 287.331 74.1085 288.769L167.054 344.129C168.334 344.892 169.74 345.255 171.13 345.255C173.849 345.255 176.5 343.864 177.991 341.358C180.247 337.572 179.005 332.675 175.22 330.421L93.783 281.915L175.22 233.408C179.006 231.154 180.248 226.257 177.993 222.471V222.471Z" fill="white"/>
<path d="M322.009 341.358C323.501 343.865 326.151 345.255 328.87 345.255C330.26 345.255 331.666 344.892 332.946 344.13L425.892 288.769C428.307 287.33 429.787 284.727 429.787 281.915C429.787 279.103 428.306 276.499 425.892 275.061L332.946 219.7C329.161 217.445 324.262 218.685 322.009 222.471C319.753 226.257 320.995 231.154 324.78 233.408L406.217 281.915L324.78 330.421C320.994 332.675 319.752 337.572 322.009 341.358V341.358Z" fill="white"/>
<path d="M280.553 222.106L206.199 332.828C203.743 336.485 204.716 341.442 208.374 343.9C209.74 344.817 211.286 345.255 212.816 345.255C215.385 345.255 217.907 344.016 219.447 341.723L293.801 231.002C296.257 227.345 295.284 222.387 291.626 219.93C287.965 217.473 283.009 218.449 280.553 222.106V222.106Z" fill="white"/>
<path d="M492.021 23.936H7.97872C3.57128 23.936 0 27.5084 0 31.9148V468.085C0 472.491 3.57128 476.064 7.97872 476.064H492.021C496.429 476.064 500 472.491 500 468.085V382.979C500 378.572 496.429 375 492.021 375C487.614 375 484.043 378.572 484.043 382.979V460.106H15.9574V103.723H484.043V351.064C484.043 355.47 487.614 359.042 492.021 359.042C496.429 359.042 500 355.47 500 351.064V31.9148C500 27.5084 496.429 23.936 492.021 23.936ZM15.9574 39.8935H311.17V87.7658H15.9574V39.8935ZM327.128 87.7658V39.8935H484.043V87.7658H327.128Z" fill="white"/>
<path d="M405.851 55.3191C401.158 55.3191 397.34 59.1372 397.34 63.8297C397.34 68.5223 401.158 72.3404 405.851 72.3404C410.544 72.3404 414.362 68.5223 414.362 63.8297C414.362 59.1372 410.544 55.3191 405.851 55.3191Z" fill="white"/>
<path d="M362.234 55.3191C357.541 55.3191 353.723 59.1372 353.723 63.8297C353.723 68.5223 357.541 72.3404 362.234 72.3404C366.927 72.3404 370.745 68.5223 370.745 63.8297C370.745 59.1372 366.927 55.3191 362.234 55.3191Z" fill="white"/>
<path d="M449.468 55.3191C444.775 55.3191 440.957 59.1372 440.957 63.8297C440.957 68.5223 444.775 72.3404 449.468 72.3404C454.161 72.3404 457.979 68.5223 457.979 63.8297C457.979 59.1372 454.161 55.3191 449.468 55.3191Z" fill="white"/>
</svg>
